<svg width="23" height="16" viewBox="0 0 23 16" fill="none" xmlns="http://www.w3.org/2000/svg">
<path d="M22.5156 2.49162C22.3841 2.00819 22.1278 1.56748 21.7724 1.21331C21.4169 0.859145 20.9745 0.603846 20.4893 0.472802C18.6897 4.87564e-08 11.4943 0 11.4943 0C11.4943 0 4.29885 4.87564e-08 2.49918 0.472802C1.51396 0.736196 0.738916 1.51002 0.472906 2.49162C0 4.28303 0 8 0 8C0 8 0 11.735 0.472906 13.5084C0.738916 14.49 1.5156 15.2638 2.49918 15.5272C4.29885 16 11.4943 16 11.4943 16C11.4943 16 18.6897 16 20.4893 15.5272C20.9745 15.3962 21.4169 15.1409 21.7724 14.7867C22.1278 14.4325 22.3841 13.9918 22.5156 13.5084C22.9885 11.717 22.9885 8 22.9885 8C22.9885 8 22.9885 4.28303 22.5156 2.49162Z" fill="#FF0000"/>
<path d="M9.19531 11.4023L15.2643 8.00966L9.19531 4.59766V11.4023Z" fill="white"/>
</svg>
