<svg width="24" height="24" viewBox="0 0 24 24" fill="none" xmlns="http://www.w3.org/2000/svg">
<path d="M15.8496 8.70117L16.0384 8.8899C17.505 10.3566 18.2384 11.0899 18.2384 12.0012C18.2384 12.9124 17.505 13.6458 16.0384 15.1124L15.8496 15.3012" stroke="white" stroke-linecap="round"/>
<path d="M13.4232 6.6875L11.9997 12L10.5762 17.3127" stroke="white" stroke-linecap="round"/>
<path d="M8.15045 8.70117L7.96172 8.8899C6.49506 10.3566 5.76172 11.0899 5.76172 12.0012C5.76172 12.9124 6.49506 13.6458 7.96172 15.1124L8.15045 15.3012" stroke="white" stroke-linecap="round"/>
<path d="M23 12C23 17.1854 23 19.7782 21.389 21.389C19.7782 23 17.1854 23 12 23C6.81455 23 4.22182 23 2.61092 21.389C1 19.7782 1 17.1854 1 12C1 6.81455 1 4.22182 2.61092 2.61092C4.22182 1 6.81455 1 12 1C17.1854 1 19.7782 1 21.389 2.61092C22.4602 3.68203 22.8192 5.18721 22.9394 7.6" stroke="white" stroke-linecap="round"/>
</svg>
