<svg width="35" height="35" viewBox="0 0 35 35" fill="none" xmlns="http://www.w3.org/2000/svg">
<circle cx="17.5" cy="17.5" r="17.25" stroke="#FF532E" stroke-opacity="0.4" stroke-width="0.5"/>
<path d="M22.7535 10.47C22.6721 10.2736 22.5151 10.1234 22.3219 10.0572L22.3205 10.0567L22.3192 10.0563L22.3163 10.0553L22.3104 10.0534L22.2977 10.0494C22.2889 10.0467 22.2793 10.0439 22.2689 10.0412C22.2482 10.0356 22.2245 10.0301 22.1979 10.0249C22.1445 10.0146 22.0796 10.0059 22.0031 10.0021C21.8495 9.99444 21.6528 10.0064 21.4113 10.0604C21.0085 10.1504 20.4857 10.356 19.8293 10.7772C19.7864 10.8048 19.7429 10.8332 19.6989 10.8626C19.6548 10.8517 19.6107 10.8412 19.5665 10.831C18.3696 10.5556 17.1307 10.5556 15.9337 10.831C15.8895 10.8412 15.8454 10.8517 15.8013 10.8626C15.7572 10.8332 15.7137 10.8048 15.6708 10.7772C15.0137 10.3558 14.4897 10.1502 14.0859 10.0603C13.8438 10.0064 13.6467 9.99446 13.493 10.0021C13.4164 10.0059 13.3515 10.0145 13.2982 10.0247C13.2716 10.0299 13.248 10.0354 13.2274 10.0409C13.2171 10.0436 13.2075 10.0463 13.1987 10.049L13.1861 10.0529L13.1802 10.0548L13.1774 10.0558L13.176 10.0562L13.1746 10.0567C12.9798 10.123 12.8216 10.2747 12.7404 10.473C12.4379 11.2115 12.3576 12.026 12.5033 12.8073C12.5103 12.8453 12.518 12.8831 12.5261 12.9209C12.4949 12.9653 12.4645 13.0103 12.4351 13.0558C11.9808 13.7582 11.7391 14.5959 11.7505 15.4562C11.7516 17.2986 12.2897 18.5604 13.1999 19.3724C13.7151 19.832 14.3131 20.1133 14.9141 20.2906C14.9828 20.3109 15.0516 20.3298 15.1204 20.3475C15.1103 20.3824 15.101 20.4176 15.0923 20.453C15.0559 20.6018 15.0318 20.7546 15.0206 20.9096C15.0196 20.9236 15.019 20.9376 15.0187 20.9517L14.9933 22.3158L14.9931 22.3305C14.9931 22.3348 14.9931 22.3391 14.9931 22.3433C14.947 22.3548 14.9 22.3632 14.8526 22.3687C14.7065 22.3856 14.5585 22.3733 14.4171 22.3326C14.2756 22.2918 14.1435 22.2234 14.0281 22.1312C13.9128 22.0389 13.8166 21.9246 13.7452 21.7946L13.7379 21.7815C13.5413 21.4401 13.2697 21.1479 12.9436 20.9271C12.6174 20.7063 12.2453 20.5627 11.8554 20.5074C11.4452 20.4493 11.0656 20.7346 11.0075 21.1448C10.9494 21.5549 11.2347 21.9345 11.6448 21.9926C11.8086 22.0158 11.9652 22.0761 12.1026 22.1692C12.2384 22.2612 12.3521 22.3827 12.4351 22.525C12.601 22.8244 12.8237 23.0886 13.091 23.3024C13.3607 23.5182 13.6702 23.6784 14.002 23.774C14.3251 23.867 14.6629 23.8968 14.9971 23.8619C14.9978 24.0418 14.9983 24.1799 14.9983 24.25C14.9983 24.6642 15.3164 25 15.7089 25H19.8169C20.2093 25 20.5274 24.6642 20.5274 24.25V21.4071C20.5468 21.0852 20.5138 20.7624 20.4304 20.453C20.4189 20.4104 20.4064 20.368 20.3931 20.3259C20.4379 20.3148 20.4826 20.303 20.5274 20.2906C21.1458 20.1203 21.7635 19.8418 22.2941 19.3737C23.2093 18.5663 23.7487 17.3034 23.7497 15.4562C23.761 14.5959 23.5194 13.7582 23.0651 13.0558C23.0356 13.0102 23.0053 12.9652 22.9739 12.9207C22.982 12.883 22.9896 12.8452 22.9966 12.8073C23.142 12.0245 23.0596 11.2086 22.7535 10.47Z" fill="#FF532E"/>
</svg>
