<svg width="35" height="35" viewBox="0 0 35 35" fill="none" xmlns="http://www.w3.org/2000/svg">
<circle cx="17.5" cy="17.5" r="17.25" stroke="#FF532E" stroke-opacity="0.4" stroke-width="0.5"/>
<path fill-rule="evenodd" clip-rule="evenodd" d="M11 16.7778C11 14.0541 11 12.6923 11.8461 11.8461C12.6923 11 14.0541 11 16.7778 11H18.2222C20.9459 11 22.3078 11 23.1538 11.8461C24 12.6923 24 14.0541 24 16.7778V18.2222C24 20.9459 24 22.3078 23.1538 23.1538C22.3078 24 20.9459 24 18.2222 24H16.7778C14.0541 24 12.6923 24 11.8461 23.1538C11 22.3078 11 20.9459 11 18.2222V16.7778ZM21.8333 14.25C21.8333 14.8483 21.3483 15.3333 20.75 15.3333C20.1517 15.3333 19.6667 14.8483 19.6667 14.25C19.6667 13.6517 20.1517 13.1667 20.75 13.1667C21.3483 13.1667 21.8333 13.6517 21.8333 14.25ZM18.9444 18.2222C18.9444 19.02 18.2978 19.6667 17.5 19.6667C16.7022 19.6667 16.0556 19.02 16.0556 18.2222C16.0556 17.4245 16.7022 16.7778 17.5 16.7778C18.2978 16.7778 18.9444 17.4245 18.9444 18.2222ZM20.3889 18.2222C20.3889 19.8177 19.0955 21.1111 17.5 21.1111C15.9045 21.1111 14.6111 19.8177 14.6111 18.2222C14.6111 16.6268 15.9045 15.3333 17.5 15.3333C19.0955 15.3333 20.3889 16.6268 20.3889 18.2222Z" fill="#FF532E"/>
</svg>
