<svg width="421" height="306" viewBox="0 0 421 306" fill="none" xmlns="http://www.w3.org/2000/svg">
<path opacity="0.1" d="M413.478 244.492C403.061 265.99 381.896 280.365 359.97 289.846C342.415 297.386 323.858 302.338 304.88 304.547C301.246 304.978 297.599 305.313 293.941 305.551C284.593 306.16 275.215 306.15 265.869 305.519C260.247 305.145 254.644 304.548 249.061 303.727C229.663 300.897 210.751 295.39 192.866 287.363C187.704 285.038 182.647 282.5 177.694 279.75C169.422 275.165 161.496 269.981 153.98 264.241C152.317 262.97 150.675 261.671 149.053 260.346L148.387 259.801C147.112 258.749 145.849 257.675 144.566 256.631C142.434 254.845 140.171 253.222 137.796 251.775C137.636 251.681 137.475 251.587 137.31 251.497C136.871 251.242 136.424 251.003 135.969 250.775C135.031 250.303 134.07 249.878 133.09 249.504C128.559 247.779 123.707 247.151 118.789 247.257C117.973 247.257 117.157 247.312 116.337 247.367C115.192 247.445 114.043 247.563 112.897 247.712L112.474 247.771C108.824 248.287 105.216 249.062 101.675 250.089C96.2077 251.658 90.838 253.619 85.433 255.388C83.1385 256.145 80.84 256.867 78.5219 257.514L78.012 257.655C74.715 258.582 71.3589 259.285 67.9668 259.757C60.2584 260.743 52.4293 260.112 44.978 257.906L44.7191 257.831L44.2406 257.69L43.5855 257.486C42.4873 257.141 41.3982 256.763 40.3182 256.353L39.6632 256.102C38.6172 255.699 37.5935 255.266 36.592 254.803L35.937 254.505C34.891 254.019 33.8673 253.505 32.8658 252.964C32.5049 252.776 32.148 252.572 31.795 252.379C30.7281 251.783 29.6821 251.158 28.6571 250.505C27.5693 249.812 26.505 249.089 25.4643 248.335C24.9832 247.99 24.5073 247.636 24.0366 247.273C21.3233 245.197 18.7824 242.906 16.439 240.42C16.3095 240.291 16.188 240.157 16.0664 240.028C15.4427 239.353 14.8308 238.667 14.2386 237.965C14.0189 237.706 13.7992 237.447 13.5835 237.18C12.8801 236.323 12.2015 235.445 11.5478 234.548C11.4498 234.419 11.3556 234.286 11.2615 234.156C8.5815 230.45 6.3597 226.433 4.6445 222.193C4.58958 222.064 4.53859 221.93 4.49153 221.801C3.96855 220.454 3.49133 219.085 3.05987 217.694C2.88336 217.114 2.7147 216.517 2.56565 215.937C2.51466 215.764 2.46759 215.588 2.42445 215.415C0.259314 206.892 0.012207 198.031 0.012207 189.222C0.012207 188.194 0.012207 187.168 0.012207 186.143C0.0749645 171.893 0.294615 157.4 2.39699 143.346C2.39699 143.248 2.42445 143.15 2.44014 143.056C3.14379 138.325 4.10091 133.635 5.30737 129.006C6.57005 124.149 8.18376 119.391 10.1358 114.768C14.972 103.393 22.0048 93.042 29.8142 83.4479C39.2278 71.9045 50.0143 61.2514 62.0284 52.4614C63.7542 51.1984 65.5036 49.972 67.2765 48.7823L68.0963 48.2449C68.3826 48.0527 68.6689 47.8527 68.9553 47.684C69.5436 47.2918 70.132 46.9231 70.7282 46.5505L71.395 46.1347L72.6658 45.3502L73.058 45.1266L73.7366 44.7344L74.4073 44.3422C75.1918 43.8793 75.9854 43.427 76.7882 42.985C80.2163 41.0736 83.7255 39.3268 87.3158 37.7448C88.3748 37.2767 89.4404 36.8257 90.5125 36.3916C95.3799 34.4092 100.38 32.7696 105.476 31.4847C107.359 31.0088 109.253 30.5904 111.16 30.2296C113.409 29.7955 115.669 29.436 117.941 29.1509C121.557 28.696 125.194 28.425 128.838 28.339C154.458 27.7153 180.338 36.0543 200.417 52.0378C208.418 58.4077 215.608 65.9504 224.594 70.8337C232.439 75.0855 241.621 76.8466 250.022 73.5009C256.965 70.7356 261.484 69.3628 269.281 69.7825C285.416 70.6914 301.324 74.018 316.471 79.6511C317.083 79.8747 317.695 80.1061 318.303 80.3375C357.805 95.4582 391.768 125.484 409.411 164.068C409.876 165.088 410.33 166.115 410.772 167.151C421.296 191.724 425.092 220.534 413.478 244.492Z" fill="#6C63FF"/>
<path opacity="0.1" d="M78.5097 108.802V257.522L77.9998 257.663C74.7028 258.59 71.3467 259.293 67.9546 259.765C60.2462 260.751 52.4171 260.12 44.9658 257.914L44.7069 257.839L44.2284 257.698L43.5733 257.494C42.4751 257.149 41.386 256.771 40.306 256.361L39.651 256.11C38.605 255.707 37.5813 255.274 36.5798 254.811L35.9248 254.513C34.8788 254.027 33.8551 253.513 32.8536 252.972C32.4927 252.783 32.1358 252.579 31.7828 252.387C30.7159 251.791 29.6699 251.166 28.6449 250.512C27.5571 249.819 26.4928 249.096 25.4521 248.343C24.971 247.998 24.495 247.644 24.0244 247.28C21.3111 245.205 18.7702 242.913 16.4268 240.428C16.2973 240.299 16.1757 240.165 16.0542 240.036C15.4305 239.361 14.8186 238.675 14.2263 237.973C14.0067 237.714 13.787 237.455 13.5713 237.188C12.8679 236.331 12.1893 235.453 11.5356 234.556C11.4376 234.427 11.3434 234.293 11.2493 234.164C8.56929 230.458 6.34749 226.441 4.63229 222.201C4.57738 222.071 4.52639 221.938 4.47932 221.809C3.95634 220.462 3.47912 219.093 3.04766 217.702C2.87116 217.121 2.7025 216.525 2.55345 215.945C2.50246 215.772 2.45539 215.596 2.41224 215.423C0.247107 206.9 0 198.039 0 189.23C0 188.202 0 187.176 0 186.151C0.0627575 171.901 0.282408 157.408 2.38478 143.354C2.38478 143.256 2.41224 143.158 2.42793 143.064C3.13158 138.332 4.08871 133.642 5.29516 129.014H45.3502V108.802H53.3361V92.5674H70.5238V108.802H78.5097Z" fill="#6C63FF"/>
<path opacity="0.1" d="M413.478 244.492C403.06 265.99 381.895 280.365 359.969 289.846C342.414 297.386 323.857 302.338 304.88 304.547C301.245 304.978 297.599 305.313 293.94 305.551C284.592 306.16 275.215 306.15 265.868 305.519C260.246 305.145 254.644 304.548 249.061 303.727C229.662 300.897 210.75 295.39 192.865 287.363C187.704 285.038 182.646 282.5 177.694 279.75C169.422 275.165 161.496 269.981 153.979 264.241C152.316 262.97 150.674 261.671 149.053 260.346L148.386 259.801C147.111 258.749 145.848 257.675 144.566 256.631C142.434 254.845 140.171 253.222 137.796 251.775C137.635 251.681 137.474 251.587 137.309 251.497C136.87 251.242 136.423 251.003 135.968 250.775C135.031 250.303 134.07 249.878 133.089 249.504V188.665H205.884V202.209H237.831V103.138H275.435V142.754H294.034V119.298H309.402V94.2423H316.462V79.6511C317.074 79.8747 317.686 80.1061 318.294 80.3375V94.2423H325.166V119.314H340.522V142.77H363.166V232.132H399.157V167.143H410.756C421.295 191.724 425.092 220.534 413.478 244.492Z" fill="#6C63FF"/>
<path opacity="0.1" d="M265.876 118.047H249.069V134.854H265.876V118.047Z" fill="#6C63FF"/>
<path opacity="0.1" d="M265.876 152.885H249.069V169.693H265.876V152.885Z" fill="#6C63FF"/>
<path opacity="0.1" d="M265.876 187.727H249.069V204.535H265.876V187.727Z" fill="#6C63FF"/>
<path opacity="0.1" d="M265.876 222.57H249.069V239.377H265.876V222.57Z" fill="#6C63FF"/>
<path opacity="0.1" d="M265.876 257.408H249.069V274.215H265.876V257.408Z" fill="#6C63FF"/>
<path opacity="0.1" d="M265.876 292.242V305.515C260.254 305.142 254.652 304.544 249.069 303.723V292.242H265.876Z" fill="#6C63FF"/>
<path opacity="0.1" d="M197.463 210.387H138.631V218H197.463V210.387Z" fill="#6C63FF"/>
<path opacity="0.1" d="M197.463 233.509H138.631V241.122H197.463V233.509Z" fill="#6C63FF"/>
<path opacity="0.1" d="M197.463 256.631V264.241H153.987C152.324 262.97 150.682 261.672 149.061 260.346L148.394 259.801C147.119 258.749 145.856 257.675 144.574 256.631H197.463Z" fill="#6C63FF"/>
<path opacity="0.1" d="M197.462 279.75V287.363H192.873C187.711 285.038 182.654 282.5 177.702 279.75H197.462Z" fill="#6C63FF"/>
<path opacity="0.1" d="M304.888 163.558H293.949V174.497H304.888V163.558Z" fill="#6C63FF"/>
<path opacity="0.1" d="M67.978 112.575H57.0386V123.515H67.978V112.575Z" fill="#6C63FF"/>
<path opacity="0.1" d="M67.978 137.992H57.0386V148.932H67.978V137.992Z" fill="#6C63FF"/>
<path opacity="0.1" d="M67.978 163.405H57.0386V174.344H67.978V163.405Z" fill="#6C63FF"/>
<path opacity="0.1" d="M67.978 188.822H57.0386V199.761H67.978V188.822Z" fill="#6C63FF"/>
<path opacity="0.1" d="M67.978 214.239H57.0386V225.178H67.978V214.239Z" fill="#6C63FF"/>
<path opacity="0.1" d="M67.978 239.651H57.0386V250.591H67.978V239.651Z" fill="#6C63FF"/>
<path opacity="0.1" d="M346.657 163.558H335.718V174.497H346.657V163.558Z" fill="#6C63FF"/>
<path opacity="0.1" d="M304.888 190.544H293.949V201.483H304.888V190.544Z" fill="#6C63FF"/>
<path opacity="0.1" d="M346.657 190.544H335.718V201.483H346.657V190.544Z" fill="#6C63FF"/>
<path opacity="0.1" d="M304.888 217.533H293.949V228.473H304.888V217.533Z" fill="#6C63FF"/>
<path opacity="0.1" d="M346.657 217.533H335.718V228.473H346.657V217.533Z" fill="#6C63FF"/>
<path opacity="0.1" d="M304.888 244.523H293.949V255.462H304.888V244.523Z" fill="#6C63FF"/>
<path opacity="0.1" d="M346.657 244.523H335.718V255.462H346.657V244.523Z" fill="#6C63FF"/>
<path opacity="0.1" d="M304.888 271.509H293.949V282.448H304.888V271.509Z" fill="#6C63FF"/>
<path opacity="0.1" d="M346.657 271.509H335.718V282.448H346.657V271.509Z" fill="#6C63FF"/>
<path opacity="0.1" d="M293.949 305.551V298.495H304.888V304.547L293.949 305.551Z" fill="#6C63FF"/>
<path opacity="0.1" d="M2.38916 143.068V149.343H44.2288V143.068H2.38916ZM6.11539 148.951H3.04419V143.46H6.11539V148.951ZM9.84162 148.951H6.77042V143.46H9.84162V148.951ZM13.5678 148.951H10.4966V143.46H13.5678V148.951ZM17.2941 148.951H14.2229V143.46H17.2941V148.951ZM21.0203 148.951H17.9491V143.46H21.0203V148.951ZM24.7465 148.951H21.6753V143.46H24.7465V148.951ZM28.4728 148.951H25.4016V143.46H28.4728V148.951ZM32.199 148.951H29.1278V143.46H32.199V148.951ZM35.9252 148.951H32.854V143.46H35.9252V148.951ZM39.6514 148.951H36.5802V143.46H39.6514V148.951ZM43.5738 148.951H40.3065V143.46H43.5738V148.951Z" fill="#6C63FF"/>
<path opacity="0.1" d="M2.38916 161.291V167.547H44.2288V161.291H2.38916ZM6.11539 167.155H3.04419V161.683H6.11539V167.155ZM9.84162 167.155H6.77042V161.683H9.84162V167.155ZM13.5678 167.155H10.4966V161.683H13.5678V167.155ZM17.2941 167.155H14.2229V161.683H17.2941V167.155ZM21.0203 167.155H17.9491V161.683H21.0203V167.155ZM24.7465 167.155H21.6753V161.683H24.7465V167.155ZM28.4728 167.155H25.4016V161.683H28.4728V167.155ZM32.199 167.155H29.1278V161.683H32.199V167.155ZM35.9252 167.155H32.854V161.683H35.9252V167.155ZM39.6514 167.155H36.5802V161.683H39.6514V167.155ZM43.5738 167.155H40.3065V161.683H43.5738V167.155Z" fill="#6C63FF"/>
<path opacity="0.1" d="M2.38916 179.51V185.766H44.2288V179.51H2.38916ZM6.11539 185.374H3.04419V179.902H6.11539V185.374ZM9.84162 185.374H6.77042V179.902H9.84162V185.374ZM13.5678 185.374H10.4966V179.902H13.5678V185.374ZM17.2941 185.374H14.2229V179.902H17.2941V185.374ZM21.0203 185.374H17.9491V179.902H21.0203V185.374ZM24.7465 185.374H21.6753V179.902H24.7465V185.374ZM28.4728 185.374H25.4016V179.902H28.4728V185.374ZM32.199 185.374H29.1278V179.902H32.199V185.374ZM35.9252 185.374H32.854V179.902H35.9252V185.374ZM39.6514 185.374H36.5802V179.902H39.6514V185.374ZM43.5738 185.374H40.3065V179.902H43.5738V185.374Z" fill="#6C63FF"/>
<path opacity="0.1" d="M2.38916 197.714V203.989H44.2288V197.714H2.38916ZM6.11539 203.597H3.04419V198.106H6.11539V203.597ZM9.84162 203.597H6.77042V198.106H9.84162V203.597ZM13.5678 203.597H10.4966V198.106H13.5678V203.597ZM17.2941 203.597H14.2229V198.106H17.2941V203.597ZM21.0203 203.597H17.9491V198.106H21.0203V203.597ZM24.7465 203.597H21.6753V198.106H24.7465V203.597ZM28.4728 203.597H25.4016V198.106H28.4728V203.597ZM32.199 203.597H29.1278V198.106H32.199V203.597ZM35.9252 203.597H32.854V198.106H35.9252V203.597ZM39.6514 203.597H36.5802V198.106H39.6514V203.597ZM43.5738 203.597H40.3065V198.106H43.5738V203.597Z" fill="#6C63FF"/>
<path opacity="0.1" d="M2.54932 215.949C2.69837 216.537 2.86703 217.125 3.04353 217.706V216.341H6.11473V221.832H4.47519C4.52226 221.962 4.57325 222.095 4.62816 222.224H44.2438V215.949H2.54932ZM9.84096 221.832H6.76976V216.341H9.84096V221.832ZM13.5672 221.832H10.496V216.341H13.5672V221.832ZM17.2934 221.832H14.2222V216.341H17.2934V221.832ZM21.0196 221.832H17.9484V216.341H21.0196V221.832ZM24.7459 221.832H21.6747V216.341H24.7459V221.832ZM28.4721 221.832H25.4009V216.341H28.4721V221.832ZM32.1983 221.832H29.1271V216.341H32.1983V221.832ZM35.9245 221.832H32.8534V216.341H35.9245V221.832ZM39.6508 221.832H36.5796V216.341H39.6508V221.832ZM43.5731 221.832H40.3058V216.341H43.5731V221.832Z" fill="#6C63FF"/>
<path opacity="0.1" d="M11.2456 234.168C11.3397 234.297 11.4339 234.431 11.5319 234.56H13.5676V237.192C13.7834 237.455 14.003 237.714 14.2227 237.977V234.564H17.2939V240.055H16.0505C16.1721 240.185 16.2937 240.318 16.4231 240.448H44.2286V234.172L11.2456 234.168ZM21.0201 240.051H17.9489V234.56H21.0201V240.051ZM24.7463 240.051H21.6751V234.56H24.7463V240.051ZM28.4725 240.051H25.4014V234.56H28.4725V240.051ZM32.1988 240.051H29.1276V234.56H32.1988V240.051ZM35.925 240.051H32.8538V234.56H35.925V240.051ZM39.6512 240.051H36.58V234.56H39.6512V240.051ZM43.5736 240.051H40.3063V234.56H43.5736V240.051Z" fill="#6C63FF"/>
<path opacity="0.1" d="M31.7827 252.387C32.1357 252.587 32.4927 252.78 32.8535 252.972V252.78H35.9247V254.513L36.5797 254.811V252.78H39.6509V256.11L40.306 256.361V252.78H43.5733V257.486L44.2283 257.69V252.387H31.7827Z" fill="#6C63FF"/>
<path opacity="0.1" d="M160.797 88.7392C160.797 88.7392 151.446 88.1744 152.56 94.7247C152.503 95.0576 152.552 95.4001 152.702 95.703C152.851 96.006 153.093 96.2539 153.391 96.4113C153.391 96.4113 153.391 95.9249 154.349 96.0897C154.684 96.1448 155.025 96.1606 155.364 96.1367C155.823 96.1065 156.26 95.9275 156.608 95.6268C156.608 95.6268 159.236 94.5404 160.26 90.2454C160.26 90.2454 161.013 89.3079 160.985 89.0687L159.416 89.7433C159.416 89.7433 159.957 90.8808 159.534 91.8261C159.534 91.8261 159.483 89.7865 159.177 89.8335C159.118 89.8335 158.357 90.2258 158.357 90.2258C158.357 90.2258 159.287 92.2105 158.585 93.65C158.585 93.65 158.851 91.2103 158.071 90.3709L156.933 91.0259C156.933 91.0259 158.02 93.0734 157.282 94.7443C157.282 94.7443 157.475 92.183 156.702 91.1867L155.694 91.9712C155.694 91.9712 156.714 93.9873 156.086 95.3758C156.086 95.3758 156.004 92.3909 155.47 92.1634C155.088 92.486 154.746 92.855 154.454 93.2617C154.454 93.2617 155.153 94.7247 154.721 95.4974C154.721 95.4974 154.454 93.5127 154.235 93.5009C154.235 93.5009 153.36 94.8188 153.27 95.721C153.31 94.884 153.57 94.0724 154.023 93.3676C153.518 93.4632 153.051 93.7045 152.682 94.0618C152.682 94.0618 152.819 93.1322 154.25 93.0499C154.25 93.0499 154.976 92.0536 155.172 91.9908C155.172 91.9908 153.756 91.8732 152.897 92.2536C152.897 92.2536 153.654 91.375 155.431 91.7751L156.423 90.9632C156.423 90.9632 154.56 90.7082 153.772 90.9906C153.772 90.9906 154.678 90.2062 156.69 90.7788L157.773 90.1316C156.941 89.9495 156.089 89.8757 155.239 89.912C155.239 89.912 156.235 89.3746 158.09 89.9591L158.875 89.61C158.875 89.61 157.698 89.3825 157.373 89.3472C157.047 89.3119 157.012 89.2177 157.012 89.2177C157.749 89.0949 158.505 89.1791 159.197 89.4609C159.197 89.4609 160.824 88.8412 160.797 88.7392Z" fill="#6C63FF"/>
<path opacity="0.1" d="M136.25 120.616C136.25 120.616 133.054 129.418 139.651 130.222C139.953 130.371 140.294 130.42 140.626 130.363C140.958 130.306 141.263 130.145 141.498 129.904C141.498 129.904 141.04 129.751 141.463 128.892C141.612 128.587 141.725 128.266 141.8 127.935C141.9 127.486 141.85 127.016 141.659 126.598C141.659 126.598 141.365 123.77 137.537 121.569C137.537 121.569 136.854 120.577 136.615 120.538L136.811 122.244C136.811 122.244 138.055 122.048 138.843 122.722C138.843 122.722 136.882 122.193 136.831 122.499C136.831 122.558 136.976 123.397 136.976 123.397C136.976 123.397 139.141 123.068 140.322 124.15C140.322 124.15 138.055 123.201 137.031 123.715L137.337 124.962C137.337 124.962 139.608 124.507 141 125.684C141 125.684 138.6 124.778 137.423 125.233L137.89 126.409C137.89 126.409 140.114 126.017 141.267 126.994C141.267 126.994 138.38 126.209 138.015 126.672C138.216 127.129 138.472 127.56 138.776 127.955C138.776 127.955 140.381 127.704 140.996 128.347C140.996 128.347 139.016 128.037 138.945 128.241C138.945 128.241 139.961 129.457 140.8 129.81C140.012 129.531 139.31 129.051 138.765 128.418C138.713 128.931 138.812 129.447 139.051 129.904C139.051 129.904 138.196 129.512 138.521 128.12C138.521 128.12 137.768 127.143 137.768 126.943C137.768 126.943 137.251 128.265 137.376 129.198C137.376 129.198 136.748 128.222 137.635 126.633L137.141 125.456C137.141 125.456 136.356 127.17 136.411 128.01C136.411 128.01 135.925 126.915 137.039 125.146L136.729 123.927C136.318 124.667 136.006 125.459 135.799 126.28C135.799 126.28 135.564 125.17 136.65 123.558L136.537 122.718C136.537 122.718 135.988 123.77 135.858 124.087C135.729 124.405 135.631 124.393 135.631 124.393C135.721 123.652 136.016 122.949 136.482 122.365C136.482 122.365 136.356 120.616 136.25 120.616Z" fill="#6C63FF"/>
<path opacity="0.1" d="M198.235 113.195C198.235 113.195 195.042 122.012 201.636 122.797C201.939 122.945 202.281 122.994 202.614 122.936C202.946 122.879 203.252 122.717 203.487 122.475C203.487 122.475 203.024 122.322 203.452 121.467C203.602 121.162 203.714 120.839 203.785 120.506C203.886 120.057 203.838 119.588 203.648 119.169C203.648 119.169 203.354 116.341 199.526 114.14C199.526 114.14 198.839 113.152 198.6 113.113L198.8 114.815C198.8 114.815 200.043 114.623 200.832 115.297C200.832 115.297 198.871 114.768 198.816 115.07C198.816 115.133 198.961 115.968 198.961 115.968C198.961 115.968 201.126 115.643 202.311 116.721C202.311 116.721 200.043 115.776 199.016 116.286L199.326 117.537C199.326 117.537 201.597 117.078 202.989 118.259C202.989 118.259 200.585 117.349 199.408 117.804L199.875 118.98C199.875 118.98 202.099 118.588 203.252 119.565C203.252 119.565 200.369 118.78 200 119.247C200.207 119.706 200.471 120.137 200.785 120.53C200.785 120.53 202.385 120.275 203.005 120.922C203.005 120.922 201.024 120.612 200.953 120.82C200.953 120.82 201.965 122.032 202.805 122.389C202.017 122.111 201.316 121.631 200.773 120.997C200.721 121.509 200.819 122.026 201.055 122.483C201.055 122.483 200.204 122.091 200.53 120.702C200.53 120.702 199.777 119.722 199.773 119.526C199.773 119.526 199.259 120.851 199.381 121.781C199.381 121.781 198.753 120.808 199.639 119.216L199.145 118.039C199.145 118.039 198.361 119.753 198.416 120.589C198.416 120.589 197.929 119.498 199.043 117.729L198.729 116.505C198.319 117.246 198.006 118.037 197.8 118.859C197.8 118.859 197.568 117.749 198.655 116.137L198.541 115.297C198.541 115.297 197.992 116.349 197.859 116.666C197.725 116.984 197.631 116.972 197.631 116.972C197.724 116.23 198.02 115.529 198.486 114.944C198.486 114.944 198.345 113.199 198.235 113.195Z" fill="#6C63FF"/>
<path opacity="0.1" d="M109.63 185.162C109.63 185.162 106.433 193.968 113.03 194.772C113.333 194.921 113.675 194.97 114.006 194.912C114.338 194.854 114.644 194.692 114.878 194.45C114.878 194.45 114.419 194.297 114.843 193.442C114.993 193.137 115.107 192.814 115.18 192.481C115.281 192.032 115.231 191.562 115.039 191.144C115.039 191.144 114.744 188.316 110.916 186.119C110.916 186.119 110.234 185.127 109.995 185.088L110.191 186.79C110.191 186.79 111.438 186.598 112.222 187.272C112.222 187.272 110.261 186.743 110.21 187.045C110.21 187.108 110.355 187.943 110.355 187.943C110.355 187.943 112.521 187.618 113.701 188.696C113.701 188.696 111.434 187.751 110.41 188.261L110.716 189.512C110.716 189.512 112.987 189.053 114.38 190.234C114.38 190.234 111.979 189.324 110.803 189.779L111.269 190.955C111.269 190.955 113.493 190.563 114.646 191.54C114.646 191.54 111.764 190.755 111.395 191.222C111.596 191.679 111.851 192.11 112.156 192.505C112.156 192.505 113.76 192.25 114.38 192.897C114.38 192.897 112.395 192.587 112.324 192.795C112.324 192.795 113.34 194.007 114.18 194.364C113.391 194.087 112.689 193.608 112.144 192.975C112.092 193.487 112.192 194.003 112.43 194.458C112.43 194.458 111.575 194.066 111.901 192.677C111.901 192.677 111.152 191.697 111.148 191.501C111.148 191.501 110.63 192.826 110.755 193.756C110.755 193.756 110.128 192.783 111.014 191.191L110.52 190.014C110.52 190.014 109.736 191.728 109.794 192.564C109.794 192.564 109.308 191.473 110.422 189.704L110.108 188.484C109.697 189.225 109.384 190.016 109.179 190.838C109.179 190.838 108.943 189.724 110.03 188.116L109.916 187.272C109.916 187.272 109.367 188.324 109.238 188.641C109.108 188.959 109.01 188.947 109.01 188.947C109.101 188.205 109.397 187.503 109.865 186.919C109.865 186.919 109.736 185.162 109.63 185.162Z" fill="#6C63FF"/>
<path opacity="0.1" d="M96.9447 102.169C96.9447 102.169 93.7519 110.971 100.345 111.775C100.648 111.923 100.99 111.973 101.322 111.916C101.655 111.859 101.961 111.698 102.197 111.457C102.197 111.457 101.734 111.304 102.161 110.445C102.309 110.139 102.421 109.817 102.495 109.485C102.595 109.037 102.547 108.569 102.358 108.151C102.358 108.151 102.063 105.323 98.2312 103.122C98.2312 103.122 97.5487 102.13 97.3095 102.091L97.5095 103.797C97.5095 103.797 98.7529 103.601 99.5374 104.276C99.5374 104.276 97.5762 103.746 97.5252 104.052C97.5252 104.111 97.6703 104.95 97.6703 104.95C97.6703 104.95 99.8355 104.621 101.02 105.703C101.02 105.703 98.7529 104.754 97.7252 105.268L98.0312 106.515C98.0312 106.515 100.302 106.056 101.699 107.237C101.699 107.237 99.2942 106.327 98.1175 106.786L98.5842 107.963C98.5842 107.963 100.808 107.57 101.961 108.551C101.961 108.551 99.0785 107.767 98.7098 108.229C98.9106 108.686 99.1662 109.117 99.4707 109.512C99.4707 109.512 101.075 109.261 101.695 109.904C101.695 109.904 99.7139 109.594 99.6433 109.798C99.6433 109.798 100.655 111.014 101.495 111.367C100.707 111.087 100.005 110.607 99.4589 109.975C99.407 110.488 99.5065 111.005 99.7453 111.461C99.7453 111.461 98.8902 111.069 99.2197 109.677C99.2197 109.677 98.4666 108.7 98.4627 108.5C98.4627 108.5 97.9488 109.822 98.0704 110.755C98.0704 110.755 97.4389 109.779 98.3293 108.19L97.8312 107.013C97.8312 107.013 97.0467 108.727 97.1055 109.567C97.1055 109.567 96.6192 108.473 97.7331 106.704L97.4193 105.484C97.0088 106.225 96.6963 107.016 96.4897 107.837C96.4897 107.837 96.2583 106.727 97.3409 105.115L97.231 104.276C97.231 104.276 96.678 105.327 96.5485 105.641C96.4191 105.954 96.3211 105.95 96.3211 105.95C96.4117 105.208 96.7079 104.506 97.1761 103.923C97.1761 103.923 97.0545 102.169 96.9447 102.169Z" fill="#6C63FF"/>
<path opacity="0.1" d="M120.651 150.1C120.651 150.1 123.119 159.122 128.971 155.984C129.303 155.931 129.611 155.774 129.849 155.536C130.087 155.298 130.244 154.991 130.296 154.658C130.296 154.658 129.834 154.799 129.688 153.854C129.633 153.519 129.538 153.191 129.406 152.877C129.232 152.452 128.922 152.096 128.524 151.865C128.524 151.865 126.653 149.724 122.248 150.132C122.248 150.132 121.118 149.72 120.898 149.826L122.044 151.101C122.044 151.101 122.95 150.226 123.981 150.316C123.981 150.316 122.063 151.022 122.205 151.293C122.236 151.348 122.84 151.944 122.84 151.944C122.84 151.944 124.409 150.426 126.009 150.626C126.009 150.626 123.613 151.159 123.071 152.171L124.04 153.015C124.04 153.015 125.633 151.332 127.453 151.489C127.453 151.489 124.962 152.132 124.264 153.183L125.331 153.885C125.331 153.885 126.9 152.273 128.429 152.418C128.429 152.418 125.629 153.45 125.586 154.031C126.014 154.288 126.473 154.492 126.951 154.639C126.951 154.639 128.127 153.509 128.986 153.67C128.986 153.67 127.186 154.56 127.249 154.768C127.249 154.768 128.778 155.16 129.661 154.972C128.857 155.2 128.008 155.213 127.198 155.011C127.45 155.46 127.829 155.824 128.288 156.058C128.288 156.058 127.363 156.227 126.829 154.905C126.829 154.905 125.652 154.54 125.527 154.376C125.527 154.376 125.872 155.756 126.507 156.447C126.507 156.447 125.433 156.011 125.241 154.199L124.154 153.521C124.154 153.521 124.511 155.368 125.029 156.023C125.029 156.023 124.001 155.411 123.891 153.325L122.934 152.509C123.027 153.355 123.23 154.186 123.538 154.98C123.538 154.98 122.711 154.195 122.667 152.266L122.091 151.642C122.091 151.642 122.248 152.819 122.322 153.152C122.397 153.485 122.322 153.544 122.322 153.544C121.969 152.885 121.806 152.141 121.852 151.395C121.852 151.395 120.742 150.042 120.651 150.1Z" fill="#6C63FF"/>
<path opacity="0.1" d="M187.583 158.157C187.583 158.157 190.05 167.178 195.898 164.04C196.231 163.989 196.54 163.833 196.779 163.594C197.018 163.356 197.175 163.048 197.228 162.715C197.228 162.715 196.761 162.856 196.616 161.93C196.563 161.594 196.47 161.266 196.337 160.954C196.161 160.528 195.849 160.173 195.451 159.942C195.451 159.942 193.58 157.8 189.175 158.212C189.175 158.212 188.045 157.796 187.83 157.902L188.971 159.177C188.971 159.177 189.877 158.302 190.909 158.392C190.909 158.392 188.991 159.098 189.136 159.369C189.163 159.424 189.771 160.02 189.771 160.02C189.771 160.02 191.34 158.502 192.94 158.702C192.94 158.702 190.54 159.236 189.999 160.248L190.971 161.091C190.971 161.091 192.54 159.408 194.38 159.565C194.38 159.565 191.893 160.208 191.195 161.26L192.262 161.962C192.262 161.962 193.831 160.35 195.357 160.495C195.357 160.495 192.556 161.526 192.517 162.107C192.944 162.365 193.401 162.569 193.878 162.715C193.878 162.715 195.055 161.585 195.914 161.746C195.914 161.746 194.117 162.636 194.176 162.844C194.176 162.844 195.706 163.236 196.592 163.048C195.787 163.276 194.937 163.289 194.125 163.087C194.379 163.535 194.758 163.899 195.215 164.135C195.215 164.135 194.29 164.303 193.756 162.981C193.756 162.981 192.58 162.617 192.458 162.452C192.458 162.452 192.799 163.833 193.435 164.523C193.435 164.523 192.36 164.088 192.168 162.275L191.081 161.589C191.081 161.589 191.438 163.436 191.96 164.091C191.96 164.091 190.932 163.48 190.822 161.393L189.861 160.577C189.954 161.424 190.159 162.255 190.469 163.048C190.469 163.048 189.638 162.264 189.595 160.334L189.018 159.71C189.018 159.71 189.175 160.887 189.25 161.22C189.324 161.554 189.25 161.613 189.25 161.613C188.896 160.954 188.733 160.209 188.779 159.463C188.779 159.463 187.673 158.098 187.583 158.157Z" fill="#6C63FF"/>
<path d="M162.472 248.755C162.472 248.755 182.821 241.903 178.608 217.624L152.76 210.912L146.759 230.834L162.472 248.755Z" fill="#CED7E7"/>
<path opacity="0.1" d="M146.759 230.834L162.468 248.755C162.468 248.755 182.817 241.903 178.604 217.624L146.759 230.834Z" fill="black"/>
<path d="M61.2513 51.4651C61.2513 51.4651 63.997 55.9327 67.7507 53.7009C71.5044 51.4691 67.9036 45.3031 67.9036 45.3031C67.9036 45.3031 60.714 44.3186 61.2513 51.4651Z" fill="#FED253"/>
<path opacity="0.1" d="M67.7508 53.7009C67.308 53.9874 66.8114 54.1804 66.2914 54.2681C65.7713 54.3558 65.2389 54.3363 64.7267 54.2108C63.3499 53.8617 62.2909 52.8027 61.7221 52.1085C61.5525 51.905 61.3953 51.6915 61.2515 51.4691C61.0593 48.9196 61.8516 47.4016 62.9498 46.5073C64.4599 45.2796 66.5505 45.2287 67.4527 45.2679C67.7312 45.2679 67.892 45.3071 67.892 45.3071L67.9665 45.4326C68.0724 45.6327 68.3038 46.0759 68.5509 46.6682C69.3903 48.6097 70.3905 52.1281 67.7508 53.7009Z" fill="black"/>
<path d="M164.472 216.482L178.592 217.624L204.872 217.839L184.166 243.335C184.166 243.335 177.596 243.692 176.243 244.617C174.889 245.543 155.89 245.049 155.89 245.049L152.822 231.979L164.472 216.482Z" fill="#FFA2A2"/>
<path opacity="0.05" d="M164.472 216.482L178.592 217.624L204.872 217.839L184.166 243.335C184.166 243.335 177.596 243.692 176.243 244.617C174.889 245.543 155.89 245.049 155.89 245.049L152.822 231.979L164.472 216.482Z" fill="black"/>
<path d="M150.19 147.935L153.473 153.505L154.187 163.217C154.187 163.217 156.474 171.497 158.188 173.925C159.902 176.353 160.616 182.781 160.616 182.781C160.616 182.781 161.33 188.779 162.185 190.061C163.04 191.344 164.185 200.652 164.185 200.652C164.185 200.652 171.756 215.788 178.608 217.643C178.608 217.643 144.621 228.783 162.471 248.775C162.471 248.775 149.763 251.913 146.762 248.347C143.762 244.782 135.909 191.94 135.909 191.94L138.337 147.382L150.19 147.935Z" fill="#CED7E7"/>
<path opacity="0.05" d="M150.19 147.935L153.473 153.505L154.187 163.217C154.187 163.217 156.474 171.497 158.188 173.925C159.902 176.353 160.616 182.781 160.616 182.781C160.616 182.781 161.33 188.779 162.185 190.061C163.04 191.344 164.185 200.652 164.185 200.652C164.185 200.652 171.756 215.788 178.608 217.643C178.608 217.643 144.621 228.783 162.471 248.775C162.471 248.775 149.763 251.913 146.762 248.347C143.762 244.782 135.909 191.94 135.909 191.94L138.337 147.382L150.19 147.935Z" fill="black"/>
<path d="M108.955 93.6539C108.001 98.6014 108.284 103.708 109.779 108.52L104.492 123.656C104.492 123.656 64.2208 101.236 67.649 95.8073C69.5905 92.7283 69.8376 84.5816 69.6807 78.1097C69.567 73.1911 69.2179 69.2452 69.2179 69.2452C69.2179 69.2452 118.639 74.105 112.062 85.3856C110.573 87.9496 109.523 90.7441 108.955 93.6539Z" fill="#FFA2A2"/>
<path opacity="0.1" d="M112.062 85.3856C110.573 87.9496 109.523 90.7441 108.955 93.6539C101.621 96.0003 93.7002 95.7339 86.5401 92.9C79.3801 90.0662 73.4226 84.8398 69.6806 78.1097C69.5669 73.1911 69.2178 69.2452 69.2178 69.2452C69.2178 69.2452 118.628 74.105 112.062 85.3856Z" fill="black"/>
<path d="M132.054 61.1063C132.057 66.3421 130.825 71.5049 128.458 76.1749C126.09 80.8449 122.654 84.8903 118.429 87.9824C114.204 91.0745 109.308 93.1259 104.141 93.9699C98.9736 94.8139 93.68 94.4267 88.6905 92.8398C83.701 91.2528 79.1563 88.5109 75.426 84.8369C71.6956 81.1629 68.8848 76.6605 67.2221 71.6957C65.5594 66.7309 65.0916 61.4438 65.8569 56.2642C66.6221 51.0846 68.5988 46.1586 71.6262 41.8868C72.0969 41.2252 72.5924 40.5793 73.1128 39.9491C76.0778 36.3454 79.7675 33.4054 83.9424 31.32C86.2074 30.1868 88.5964 29.3207 91.0614 28.7391C95.5123 27.6846 100.133 27.5573 104.635 28.3651C109.137 29.1729 113.425 30.8984 117.231 33.4344C121.038 35.9703 124.282 39.2625 126.762 43.106C129.242 46.9496 130.904 51.2622 131.646 55.7758C131.923 57.539 132.059 59.3215 132.054 61.1063Z" fill="#FFA2A2"/>
<path d="M145.189 197.922C144.691 200.581 145.315 205.441 146.26 210.387C146.299 210.603 146.343 210.818 146.386 211.034C146.429 211.25 146.492 211.583 146.547 211.854C146.982 213.98 147.456 216.086 147.919 218C148.382 219.914 148.798 221.554 149.151 222.903C149.684 224.923 150.049 226.194 150.049 226.194C150.049 226.194 150.096 227.441 150.159 229.426C150.194 230.571 150.234 231.968 150.273 233.509C150.273 233.956 150.3 234.411 150.312 234.882C150.332 235.702 150.351 236.553 150.371 237.424C150.371 237.706 150.371 237.988 150.39 238.275C150.39 239.212 150.426 240.169 150.441 241.122C150.461 242.432 150.477 243.742 150.485 245.013C150.485 245.5 150.485 245.978 150.485 246.449C150.485 247.665 150.485 248.83 150.485 249.9C150.441 252.94 150.32 255.235 150.061 255.898C149.971 256.125 149.888 256.372 149.81 256.631C149.47 257.849 149.223 259.091 149.072 260.346L148.406 259.8C147.131 258.749 145.868 257.675 144.585 256.631C142.453 254.845 140.19 253.222 137.815 251.775C137.655 251.681 137.494 251.587 137.329 251.497C136.89 251.242 136.443 251.003 135.988 250.775C135.05 250.303 134.089 249.878 133.109 249.504C128.578 247.778 123.726 247.151 118.808 247.257C116.847 248.006 115.572 248.543 115.572 248.543L113.077 249.296L112.661 249.422C109.959 250.246 106.158 251.415 104.789 251.901C102.577 252.685 83.3693 256.682 83.3693 256.682C81.6145 257.161 79.822 257.489 78.0114 257.663C74.7144 258.59 71.3583 259.293 67.9662 259.765C60.2579 260.751 52.4287 260.12 44.9774 257.914C44.755 257.927 44.5318 257.921 44.3106 257.894C44.4479 257.894 44.5812 257.863 44.7028 257.839L44.2243 257.698L43.5693 257.494C42.471 257.149 41.3819 256.771 40.3019 256.361L39.6469 256.11C38.601 255.707 37.5772 255.274 36.5757 254.811L35.9207 254.513C34.8747 254.027 33.851 253.513 32.8495 252.972C32.4886 252.783 32.1317 252.579 31.7787 252.387C30.7118 251.791 29.6659 251.166 28.6408 250.512C28.4682 249.034 28.378 248.045 28.378 248.045L26.8483 240.428L26.7699 240.036L25.6716 234.545L25.5932 234.152L23.2044 222.205L23.126 221.813L22.0277 216.321L21.9493 215.929L19.5292 203.989L19.4508 203.597L18.3525 198.106L18.2741 197.714L15.8736 185.751L15.7951 185.358L14.6969 179.887L14.6184 179.494L14.1831 177.337L13.528 174.07C13.528 174.07 11.4374 171.081 9.084 167.547L8.82121 167.155C8.15048 166.162 7.46015 165.131 6.78943 164.119C6.56586 163.785 6.35013 163.456 6.1344 163.13C5.80754 162.636 5.49113 162.154 5.18519 161.683L4.97338 161.357L4.93024 161.291C1.54918 156.058 3.81237 153.783 3.81237 153.783C3.81237 153.783 5.23226 151.861 7.06399 149.32C7.15421 149.19 7.24834 149.061 7.3464 148.928C8.13087 147.829 8.99379 146.629 9.84101 145.429L10.496 144.495C10.7432 144.146 10.9863 143.797 11.2217 143.452C11.3158 143.323 11.406 143.189 11.4923 143.06C13.3005 140.447 14.791 138.169 15.097 137.361C15.5755 136.086 18.6271 132.316 21.6669 129.01C24.0634 126.398 26.4482 124.076 27.519 123.519C29.947 122.236 30.9472 118.09 30.9472 118.09C30.9472 118.09 36.2306 116.239 36.9444 114.811C37.6583 113.383 47.6563 106.966 47.6563 106.966C47.6563 106.966 51.7003 104.362 53.3359 102.793C53.5674 102.588 53.7694 102.351 53.936 102.091C54.5048 101.071 58.2192 100.232 59.7293 99.9296C60.1216 99.8512 60.3647 99.808 60.3647 99.808C60.9744 98.7002 61.745 97.689 62.6515 96.8074C63.2673 96.2622 64.0361 94.3834 64.6832 92.5635C65.3853 90.5788 65.9305 88.6686 65.9305 88.6686C67.0759 84.8129 69.3587 85.9543 69.3587 85.9543C69.3556 86.481 69.4055 87.0066 69.5077 87.5232C70.4609 92.2301 75.6383 94.1912 78.3565 96.3917C81.3571 98.8157 86.0679 105.103 89.7823 106.386C92.8574 107.449 96.4229 111.457 97.5525 112.795L97.6388 112.897C97.8271 113.117 97.9212 113.242 97.9212 113.242C97.9212 113.242 100.027 113.132 101.31 113.109H101.777C102.038 113.083 102.286 112.982 102.491 112.818C103.765 111.952 105.664 109.41 106.492 108.825C107.488 108.108 108.492 96.5407 108.492 96.5407L108.543 96.5172C112.1 94.8502 115.917 111.536 115.917 111.536C115.917 111.536 122.628 113.536 123.201 114.964C123.311 115.246 123.817 115.748 124.577 116.356C128.042 119.004 131.73 121.347 135.599 123.358C135.686 123.401 135.768 123.444 135.854 123.479C135.932 123.521 136.012 123.559 136.093 123.593C136.239 123.664 136.38 123.726 136.513 123.785C136.725 123.879 136.921 123.958 137.102 124.021L137.337 124.103C137.899 124.29 138.428 124.564 138.906 124.915C139.047 125.017 139.188 125.123 139.325 125.237C139.86 125.681 140.351 126.175 140.792 126.711C140.859 126.79 140.922 126.872 140.985 126.951C141.283 127.323 141.549 127.692 141.769 128.033C142.13 128.56 142.458 129.107 142.754 129.673C142.754 129.673 148.606 139.671 150.465 140.808C152.324 141.946 153.466 153.521 153.466 153.521L147.19 176.784C147.19 176.784 146.896 182.668 146.346 188.669C146.041 192.034 145.652 195.458 145.189 197.922Z" fill="#CED7E7"/>
<path d="M97.9215 113.948C97.9215 113.948 93.7128 116.231 90.4259 116.447C89.9956 116.467 89.5644 116.442 89.1394 116.372C85.6955 115.85 80.6436 113.018 80.6436 113.018L86.5702 106.519L93.7795 110.092L96.431 112.56L97.9215 113.948Z" fill="#63667E"/>
<path opacity="0.1" d="M131.63 55.7758C131.481 55.9867 131.311 56.1825 131.124 56.3603C129.061 58.3214 125.397 57.5095 122.585 57.0545C120.141 56.655 117.754 55.965 115.474 54.9992C113.489 54.152 111.108 53.1165 109.323 54.3324C108.637 54.7952 108.166 55.5366 107.452 55.9445C106.739 56.3524 105.829 56.3799 104.985 56.3916C102.24 56.3916 99.494 56.423 96.815 55.8033C92.8182 54.8698 88.684 52.5203 84.8833 54.0696C81.9101 55.2777 80.298 58.5136 79.494 61.6241C79.1017 63.1498 78.8115 64.7619 77.925 66.0563C77.0386 67.3507 75.3245 68.2685 73.8654 67.6605C71.712 66.7623 71.3943 63.1067 68.7977 62.9224C65.9462 62.7223 65.9815 65.668 66.813 67.7978C68.0446 70.9357 69.6567 74.0736 69.7273 77.3448C66.6627 71.8558 65.2146 65.6113 65.5505 59.3336C65.8865 53.056 67.9928 47.0017 71.6257 41.8711C72.258 41.4796 72.7528 40.9011 73.0417 40.2159C73.0708 40.1232 73.0943 40.0289 73.1123 39.9335C73.328 38.8392 72.7201 37.6899 72.6848 36.5446C72.5475 33.7479 75.5755 31.7985 78.3526 31.4455C80.2 31.2102 82.0906 31.3906 83.9419 31.3318C84.8744 31.3112 85.8018 31.1876 86.7072 30.9631C88.269 30.4951 89.7315 29.7439 91.0217 28.747C95.4726 27.6925 100.093 27.5652 104.595 28.373C109.097 29.1807 113.385 30.9063 117.192 33.4422C120.998 35.9782 124.243 39.2704 126.722 43.1139C129.202 46.9574 130.865 51.2701 131.606 55.7837L131.63 55.7758Z" fill="black"/>
<path d="M132.301 53.4655C132.106 54.2414 131.698 54.9475 131.125 55.5052C129.061 57.4663 125.398 56.6505 122.586 56.1955C120.142 55.8047 117.754 55.1198 115.474 54.1559C113.49 53.3126 111.109 52.2771 109.324 53.493C108.638 53.9558 108.167 54.6971 107.453 55.1051C106.739 55.513 105.829 55.5405 104.986 55.5483C102.24 55.5679 99.4948 55.5836 96.8158 54.9639C92.819 54.0264 88.6848 51.6809 84.884 53.2263C81.9109 54.4344 80.2988 57.6742 79.4948 60.7846C79.1025 62.3104 78.8123 63.9225 77.9258 65.213C77.0394 66.5034 75.3253 67.4291 73.8662 66.8211C71.7128 65.9229 71.3951 62.2673 68.7985 62.0829C65.947 61.8829 65.9823 64.8286 66.8138 66.9584C68.2729 70.6729 70.2576 74.3677 69.6065 78.3057C68.9593 78.3057 67.8885 78.2822 67.2531 78.2665C67.7473 77.4232 66.806 76.4191 65.8685 76.1328C64.9311 75.8464 63.8367 75.8504 63.1229 75.1679C62.409 74.4854 62.4051 73.4303 62.4796 72.485C62.6423 70.4646 63.1366 68.4848 63.9426 66.625C64.4565 65.4483 65.1194 64.1735 64.7271 62.9419C64.4917 62.3837 64.2082 61.8469 63.8799 61.3377C63.064 59.7687 63.2562 57.8076 63.9544 56.1876C64.2525 55.4973 64.4682 54.8462 64.7154 54.2265C65.0274 53.3455 65.479 52.5205 66.0529 51.7828C66.9511 50.665 67.8297 48.9823 66.8373 47.9429C66.5863 47.6801 67.0884 47.4996 66.9276 47.1584C66.8991 47.1001 66.8793 47.038 66.8687 46.9741C66.8226 46.5609 66.9225 46.1446 67.1511 45.7973C67.1974 45.7071 67.2485 45.6194 67.3041 45.5346C67.3492 45.4449 67.4003 45.3584 67.4571 45.2757C68.3256 43.8255 69.4799 42.5671 70.8499 41.5769C71.701 40.9611 72.6973 40.3688 73.0346 39.3725C73.4269 38.1958 72.7365 36.9446 72.6777 35.7012C72.5404 32.9046 75.5685 30.9552 78.3455 30.6022C81.1225 30.2492 84.0015 30.8336 86.7079 30.1158C90.5479 29.1039 93.2465 25.7149 96.7334 23.8126C98.641 22.7926 100.756 22.2221 102.918 22.1446C105.08 22.0671 107.231 22.4847 109.207 23.3655C113.278 25.2246 116.349 28.9823 120.601 30.3943C122.107 30.8964 123.739 31.0964 125.096 31.9279C126.665 32.8928 127.618 34.5794 128.434 36.2425C129.677 38.7646 129.928 41.2984 130.787 43.9695C131.47 46.0876 132.415 48.8568 132.493 51.2965C132.538 52.025 132.473 52.7561 132.301 53.4655Z" fill="#896363"/>
<g opacity="0.1">
<path d="M67.347 48.5509C67.4098 48.2998 67.416 48.038 67.3651 47.7843C67.3142 47.5306 67.2076 47.2913 67.0529 47.0839C67.1548 47.3899 66.7116 47.5664 66.9548 47.8213C67.1485 48.025 67.284 48.277 67.347 48.5509Z" fill="black"/>
<path d="M67.0405 46.1857C66.9942 46.3228 66.9665 46.4654 66.958 46.6097C67.0326 46.4841 67.1347 46.3546 67.0405 46.1857Z" fill="black"/>
<path d="M131.234 54.5481C129.166 56.5093 125.507 55.6974 122.687 55.2385C120.245 54.8453 117.859 54.1564 115.583 53.1871C113.595 52.3399 111.218 51.3044 109.429 52.5203C108.747 52.9831 108.276 53.7244 107.558 54.1324C106.84 54.5403 105.934 54.5677 105.091 54.5756C102.345 54.5756 99.5998 54.6109 96.917 53.9872C92.924 53.0537 88.7899 50.7121 84.9891 52.2536C82.016 53.4656 80.4039 56.7015 79.5998 59.8119C79.2076 61.3377 78.9212 62.9498 78.0309 64.2442C77.1405 65.5385 75.4264 66.4564 73.9712 65.8523C71.8179 64.9502 71.5002 61.2985 68.9036 61.1141C66.8757 60.969 66.3109 62.4203 66.4482 64.0324C66.5659 62.8007 67.2327 61.8515 68.9036 61.9692C71.5002 62.1536 71.8179 65.8092 73.9712 66.7074C75.4264 67.3154 77.1444 66.4015 78.0309 65.0992C78.9173 63.797 79.2076 62.1928 79.5998 60.6709C80.4039 57.5605 82.016 54.3206 84.9891 53.1126C88.7899 51.5672 92.924 53.897 96.917 54.8462C99.5842 55.4699 102.353 55.4503 105.091 55.4307C105.934 55.4307 106.825 55.4071 107.558 54.9914C108.292 54.5756 108.735 53.8421 109.429 53.3754C111.218 52.1633 113.595 53.1989 115.583 54.0422C117.86 55.011 120.245 55.7011 122.687 56.0975C125.507 56.5525 129.166 57.3722 131.234 55.4032C132.355 54.3324 132.693 52.7831 132.618 51.0886C132.555 52.434 132.163 53.6538 131.234 54.5481Z" fill="black"/>
<path d="M72.8146 34.9913C72.7929 35.1867 72.785 35.3833 72.791 35.5797C72.8302 36.3955 73.1401 37.2114 73.2382 38.0076C73.3833 37.031 72.9322 36.0111 72.8146 34.9913Z" fill="black"/>
<path d="M64.844 62.8204C64.8764 62.9377 64.9012 63.0569 64.9185 63.1773C64.9821 62.7727 64.9567 62.3591 64.844 61.9653C64.6102 61.405 64.3266 60.8668 63.9968 60.3571C63.7021 59.7769 63.5273 59.1433 63.483 58.494C63.4032 59.4312 63.5809 60.3725 63.9968 61.2161C64.3274 61.724 64.611 62.261 64.844 62.8204Z" fill="black"/>
<path d="M69.7119 77.3252L67.4173 77.2899C67.4708 77.4285 67.4923 77.5774 67.48 77.7255C67.4678 77.8736 67.4222 78.017 67.3467 78.145C67.9939 78.145 69.0686 78.1685 69.7001 78.1842C69.8098 77.5129 69.8479 76.8318 69.8138 76.1524C69.8049 76.5451 69.7709 76.9368 69.7119 77.3252Z" fill="black"/>
<path d="M65.9582 75.1561C65.0207 74.8737 63.9303 74.8698 63.2322 74.1834C62.8212 73.7338 62.5895 73.149 62.581 72.5399C62.5222 73.4421 62.581 74.4148 63.2322 75.0424C63.9303 75.7288 65.0207 75.7327 65.9582 76.0151C66.2632 76.1038 66.5468 76.254 66.7917 76.4563C67.0365 76.6587 67.2374 76.909 67.382 77.1918C67.7782 76.3799 66.8682 75.4268 65.9582 75.1561Z" fill="black"/>
</g>
<path opacity="0.1" d="M137.318 251.497C136.878 251.242 136.431 251.003 135.976 250.775C135.039 250.303 134.078 249.878 133.097 249.504C128.567 247.779 123.715 247.151 118.796 247.257C116.835 248.006 115.56 248.543 115.56 248.543L113.066 249.296L112.65 249.422C112.623 249.147 112.591 248.873 112.564 248.594C112.536 248.316 112.505 248.049 112.473 247.775C111.595 239.455 110.905 230.909 110.905 230.909V223.527V222.668L110.857 200.918L110.465 193.748L110.281 190.575L110.246 189.971L110.175 188.732L110.136 187.994C110.049 187.76 109.976 187.522 109.916 187.28C109.889 187.182 109.861 187.072 109.838 186.959C109.74 186.566 109.634 186.06 109.524 185.511C108.806 181.903 107.908 175.819 107.853 174.584C107.782 172.936 106.355 163.083 106.355 163.083C106.209 157.659 101.648 147.445 100.499 145.519C99.3493 143.593 98.0667 132.022 98.4982 131.399C98.7217 131.065 98.8669 129.092 98.9571 127.272C98.9571 127.064 98.9767 126.86 98.9845 126.66C99.0434 125.237 99.0708 124.048 99.0708 124.048L103.558 123.162L104.762 122.926L104.856 122.907L104.896 122.985C105.025 123.224 105.429 123.989 105.904 124.993C105.958 125.099 106.009 125.213 106.064 125.327C106.088 125.382 106.115 125.437 106.143 125.492C107.021 127.414 108.037 129.943 107.994 131.399C107.924 133.972 110.854 140.185 110.854 140.185C111.136 141.612 117.349 155.819 117.349 155.819C117.349 155.819 122.421 169.743 122.134 172.03C121.848 174.317 124.562 189.453 124.562 189.453L127.347 205.021C128.7 208.088 130.485 215.156 130.485 215.156L131.163 219.165L131.293 219.93L133.101 230.626L133.988 235.866C133.988 235.866 134.36 238.651 134.925 241.75C134.972 242.028 135.027 242.311 135.082 242.593C135.43 244.633 135.924 246.645 136.561 248.614C136.876 249.557 137.129 250.52 137.318 251.497Z" fill="black"/>
<path d="M137.803 251.775C137.643 251.681 137.482 251.587 137.317 251.497C136.878 251.242 136.431 251.003 135.976 250.775C135.038 250.303 134.077 249.878 133.097 249.504C128.566 247.778 123.714 247.151 118.796 247.257C116.835 248.006 115.56 248.543 115.56 248.543L113.065 249.296C113.034 249.022 113.006 248.747 112.975 248.469C112.944 248.19 112.92 247.967 112.897 247.716C112.018 239.416 111.328 230.908 111.328 230.908V223.456V222.597L111.281 200.903L110.888 194.054L110.81 192.634L110.755 191.673L110.684 190.402L110.614 189.112L110.563 188.182V187.978C110.563 187.959 110.563 187.935 110.535 187.912C110.461 187.7 110.371 187.378 110.273 186.97L110.225 186.774C110.206 186.684 110.182 186.586 110.163 186.488C109.425 183.142 108.343 175.929 108.284 174.576C108.213 172.928 106.786 163.075 106.786 163.075C106.64 157.651 102.079 147.437 100.93 145.511C99.7803 143.585 98.5016 132.014 98.9291 131.391C99.1762 130.999 99.3213 128.618 99.4155 126.653C99.4155 126.496 99.4155 126.343 99.4155 126.198C99.4665 124.986 99.4861 124.04 99.4861 124.04L103.659 123.217L104.718 123.009L104.883 122.977L105.275 122.899C105.275 122.899 105.789 123.848 106.405 125.154L106.484 125.319C107.382 127.257 108.445 129.892 108.413 131.391C108.343 133.964 111.273 140.177 111.273 140.177C111.555 141.605 117.768 155.811 117.768 155.811C117.768 155.811 122.84 169.736 122.553 172.022C122.267 174.309 124.981 189.445 124.981 189.445L127.766 205.013C129.119 208.08 130.904 215.149 130.904 215.149L131.536 218.883L131.665 219.64L133.089 228.08L134.403 235.858C134.403 235.858 134.795 238.632 135.336 241.742C135.387 242.024 135.438 242.307 135.493 242.593C135.841 244.642 136.335 246.663 136.972 248.641C137.32 249.666 137.597 250.713 137.803 251.775Z" fill="#63667E"/>
<path d="M134.266 50.3277C134.266 50.3277 132.767 52.2575 131.414 52.2575C130.061 52.2575 124.793 52.0418 122.047 51.1867C119.302 50.3316 105.84 49.6845 105.84 49.6845C105.84 49.6845 86.7777 49.7551 86.1345 49.1118C85.4912 48.4685 74.2812 45.0404 73.1398 45.2561C72.9005 45.3032 72.3161 45.4052 71.5355 45.5346L70.6412 45.6798C69.288 45.8955 67.5975 46.1465 66.0521 46.3309C64.1419 46.5544 62.4631 46.6682 61.9297 46.4721V44.8286C61.9297 44.8286 64.1419 41.6123 64.2831 40.6905C64.4243 39.7688 66.2835 26.4053 71.1394 21.624C73.1454 17.7892 76.3919 14.7474 80.349 12.9949C86.919 10.1355 93.4889 7.71145 93.4889 7.71145L94.6381 7.54671L98.3447 6.99758C98.4574 6.88542 98.5795 6.78307 98.7095 6.69164C99.7372 5.90717 102.852 4.20095 106.911 7.86835L107.629 9.01367C107.629 9.01367 120.122 11.9397 125.903 22.1496C131.685 32.3595 131.975 42.3575 132.402 46.9271C132.402 46.9271 132.116 48.2136 132.689 48.7117C132.896 48.8949 133.094 49.0886 133.281 49.2922C133.332 49.3432 133.383 49.3942 133.43 49.4491C133.595 49.6139 133.748 49.7864 133.873 49.9277C133.888 49.9387 133.902 49.9519 133.913 49.9669C133.943 50.004 133.976 50.0394 134.011 50.0728L134.266 50.3277Z" fill="#FED253"/>
<path opacity="0.05" d="M134.266 50.3277C134.266 50.3277 132.767 52.2575 131.414 52.2575C130.061 52.2575 124.793 52.0418 122.048 51.1867C119.302 50.3316 105.841 49.6845 105.841 49.6845C105.841 49.6845 86.7779 49.7551 86.1347 49.1118C85.4914 48.4685 74.2814 45.0404 73.1399 45.2561C72.9007 45.3032 72.3163 45.4052 71.5357 45.5346L71.3317 44.2795L71.2808 43.9696C71.2808 43.9696 92.9164 39.3295 107.339 41.7613C121.761 44.1932 132.403 46.8996 132.403 46.8996C132.403 46.8996 132.116 48.1861 132.689 48.6843C132.896 48.8674 133.094 49.0612 133.281 49.2648C133.332 49.3158 133.383 49.3667 133.43 49.4217C133.595 49.5864 133.748 49.759 133.874 49.9002C133.889 49.9112 133.902 49.9244 133.913 49.9394C133.943 49.9765 133.976 50.0119 134.011 50.0453L134.266 50.3277Z" fill="black"/>
<path opacity="0.1" d="M132.301 53.4656C129.63 53.6735 124.707 53.0224 122.554 52.7047C121.942 52.6145 121.342 52.5046 120.738 52.3713C118.427 51.8692 111.324 50.4611 107.009 51.1122C101.797 51.8967 87.0879 50.469 87.0879 50.469C87.0879 50.469 78.0194 48.6137 74.3756 47.1153C73.038 46.5623 70.8023 46.3897 68.5783 46.6643C68.0112 46.735 67.4482 46.8358 66.8917 46.9663C63.8558 47.6841 61.2945 49.3197 61.7378 52.1085C61.5681 51.9051 61.4109 51.6916 61.2671 51.4691C61.0749 48.9196 61.8672 47.4017 62.9655 46.5074L63.2243 46.4015C64.566 46.0203 65.9313 45.7281 67.3114 45.5268C67.5272 45.4915 67.7507 45.4601 67.9782 45.4327C71.881 44.9071 77.5252 44.7894 82.2869 47.1859C82.2869 47.1859 86.7113 49.2609 89.7119 49.2609C92.7125 49.2609 117.129 49.4766 122.844 51.1161C123.982 51.4448 125.142 51.69 126.315 51.8496C128.399 52.1182 130.516 51.9186 132.513 51.2652C132.553 52.0052 132.482 52.747 132.301 53.4656Z" fill="black"/>
<path opacity="0.1" d="M134.266 50.3277C134.266 50.3277 132.767 52.2575 131.414 52.2575C130.061 52.2575 124.793 52.0418 122.047 51.1867C119.302 50.3316 105.84 49.6845 105.84 49.6845C105.84 49.6845 86.7777 49.7551 86.1345 49.1118C85.4912 48.4685 74.2812 45.0404 73.1398 45.2561C72.9005 45.3032 72.3161 45.4052 71.5355 45.5346L70.6412 45.6797C69.0879 45.6718 67.5418 45.8912 66.0521 46.3308C64.1419 46.5544 62.4631 46.6682 61.9297 46.472V46.1465C62.341 45.9078 62.7697 45.7006 63.2123 45.5268C65.8591 44.7856 68.5847 44.3616 71.3315 44.2638C74.7558 44.1383 78.7605 44.5383 82.2788 46.3112C82.2788 46.3112 86.7032 48.3861 89.7038 48.3861C92.7044 48.3861 117.121 48.598 122.836 50.2414C123.974 50.567 125.134 50.8108 126.307 50.971C128.881 51.2953 131.495 50.92 133.873 49.8845C133.888 49.8955 133.902 49.9087 133.913 49.9237C133.943 49.9608 133.976 49.9962 134.011 50.0296L134.266 50.3277Z" fill="black"/>
<path d="M61.7931 52.0418C61.7931 52.0418 57.0078 48.3979 63.2208 45.97C63.2208 45.97 74.074 42.6164 82.2874 46.7545C82.2874 46.7545 86.7118 48.8215 89.7124 48.8215C92.713 48.8215 117.13 49.0373 122.844 50.6807C123.983 51.0067 125.143 51.2506 126.316 51.4103C129.356 51.7789 132.436 51.1937 135.129 49.7354C135.521 49.5197 135.874 49.4099 135.98 49.5354C136.337 49.9669 136.055 52.4654 132.913 52.9635C130.462 53.3558 124.892 52.6144 122.55 52.2732C121.942 52.183 121.338 52.0692 120.738 51.9398C118.428 51.4377 111.324 50.0296 106.99 50.6807C101.781 51.4652 87.0687 50.0375 87.0687 50.0375C87.0687 50.0375 78.0042 48.1822 74.3603 46.6799C70.7164 45.1777 60.436 46.472 61.7931 52.0418Z" fill="#FED253"/>
<path opacity="0.1" d="M102.134 13.7557C101.742 13.1909 96.7018 9.1548 94.6465 7.5231L98.3531 6.97397C98.4658 6.86181 98.5878 6.75946 98.7179 6.66803C101.413 9.49604 102.134 13.7557 102.134 13.7557Z" fill="black"/>
<path opacity="0.1" d="M85.7856 35.4032L84.1421 37.8311L90.4257 37.6193L90.5669 34.905L85.7856 35.4032Z" fill="black"/>
<path opacity="0.1" d="M124.126 38.3332L124.84 40.5454L128.841 41.1887L127.127 38.545L124.126 38.3332Z" fill="black"/>
<path opacity="0.1" d="M55.4385 112.599C55.866 113.313 69.9315 131.818 73.646 131.305C77.3605 130.791 55.4385 112.599 55.4385 112.599Z" fill="black"/>
<path opacity="0.1" d="M102.565 129.512C102.565 129.512 105.994 132.799 105.492 134.082C104.989 135.364 102.565 129.512 102.565 129.512Z" fill="black"/>
<path opacity="0.1" d="M65.1499 152.077C65.1499 152.077 62.1493 166.143 63.7221 166.59C65.295 167.037 65.1499 152.077 65.1499 152.077Z" fill="black"/>
<path opacity="0.1" d="M103.707 206.7C104.205 208.128 108.347 217.412 109.276 217.91C110.206 218.408 103.707 206.7 103.707 206.7Z" fill="black"/>
<path opacity="0.1" d="M151.834 168.571C151.689 169.069 148.12 171.999 148.904 173.07C149.688 174.14 151.834 168.571 151.834 168.571Z" fill="black"/>
<path opacity="0.1" d="M124.127 194.631C124.056 194.992 123.342 202.475 124.699 203.915C126.057 205.354 124.127 194.631 124.127 194.631Z" fill="black"/>
<path opacity="0.1" d="M160.714 233.509C159.679 234.086 158.608 234.643 157.517 235.176C156.341 235.749 155.164 236.294 153.964 236.808C153.485 237.016 153.007 237.22 152.532 237.416C151.81 237.714 151.097 238 150.391 238.275C148.245 239.114 146.178 239.844 144.338 240.459C143.624 240.699 142.942 240.918 142.307 241.122C139.106 242.138 136.98 242.691 136.98 242.691C136.494 242.587 135.997 242.546 135.501 242.57C135.364 242.57 135.223 242.57 135.078 242.57C134.413 242.618 133.752 242.702 133.097 242.821C128.716 243.605 122.526 245.806 118.796 247.245C116.835 247.994 115.56 248.532 115.56 248.532L113.065 249.285L112.65 249.41C109.947 250.234 106.146 251.403 104.778 251.889C102.565 252.674 83.3576 256.671 83.3576 256.671C81.6029 257.15 79.8104 257.478 77.9997 257.651C73.5379 258.061 69.0533 258.163 64.5774 257.957C60.0824 258.247 52.8104 257.259 48.5782 256.592L47.9036 256.486C46.2679 256.219 45.2285 256.027 45.2285 256.027L45.7776 255.27L57.0387 239.734L57.1054 239.64L67.5976 225.17L67.9899 224.645L68.943 223.331C68.943 223.331 69.5157 222.546 71.72 222.495C71.9789 222.495 72.2613 222.495 72.5712 222.495C74.4228 222.644 76.2496 223.017 78.0115 223.605L78.5214 223.758C86.119 225.935 97.8625 225.39 97.8625 225.39C97.8625 225.39 105.17 224.213 110.912 223.507L111.34 223.452C113.216 223.187 115.105 223.023 117 222.962C120.498 223.033 128.068 221.177 128.068 221.177C129.696 220.828 130.383 220.534 131.3 219.879C131.422 219.793 131.551 219.699 131.693 219.597C132.085 219.302 132.536 218.942 133.117 218.494C134.176 217.682 135.662 216.58 138 215.035C138.204 214.901 138.42 214.768 138.651 214.643C138.882 214.517 139.177 214.348 139.459 214.207C141.723 213.135 144.11 212.345 146.566 211.854C148.604 211.416 150.672 211.131 152.752 211.003H153.062C158.945 210.689 164.954 211.697 168.469 215.003C169.083 215.585 169.619 216.244 170.061 216.965C170.276 217.307 170.467 217.663 170.634 218.032C170.954 218.734 171.193 219.471 171.344 220.228C171.372 220.369 171.396 220.51 171.414 220.652C171.414 220.695 171.414 220.734 171.414 220.777C171.414 220.891 171.438 221.005 171.446 221.118C171.759 225.813 166.888 230.057 160.714 233.509Z" fill="black"/>
<path d="M45.2285 255.184C45.2285 255.184 57.9369 257.537 64.5774 257.11C64.5774 257.11 76.7877 257.753 83.3576 255.827C83.3576 255.827 102.577 251.826 104.778 251.042C106.978 250.257 115.56 247.684 115.56 247.684C115.56 247.684 132.269 240.687 136.98 241.828C136.98 241.828 173.968 232.262 171.324 219.338C168.68 206.414 145.335 209.344 137.984 214.195C130.634 219.047 131.708 219.553 128.061 220.338C128.061 220.338 120.49 222.193 116.992 222.123C113.493 222.052 97.8546 224.55 97.8546 224.55C97.8546 224.55 85.5738 225.123 78.0076 222.766C70.4414 220.408 68.9391 222.479 68.9391 222.479L45.2285 255.184Z" fill="#FFA2A2"/>
<path opacity="0.1" d="M72.787 221.64C72.7889 221.656 72.7889 221.671 72.787 221.687C72.7596 221.979 72.684 222.264 72.5634 222.53C71.0572 226.225 62.5065 236.192 62.5065 236.192C62.1167 237.376 61.6462 238.532 61.0984 239.651C59.9202 242.045 58.5631 244.346 57.0388 246.535C54.7792 249.81 52.3122 252.938 49.653 255.898H49.6334C49.295 256.149 48.9427 256.381 48.5783 256.592C47.6565 257.141 46.2719 257.82 44.9658 257.902C44.7434 257.915 44.5202 257.909 44.299 257.883C44.4363 257.883 44.5696 257.851 44.6912 257.828L44.2127 257.686L43.5577 257.482C42.4594 257.137 41.3703 256.759 40.2903 256.349L39.6353 256.098C38.5894 255.695 37.5656 255.262 36.5641 254.8L35.9091 254.501C34.8631 254.015 33.8394 253.501 32.8379 252.96C32.477 252.772 32.1201 252.568 31.7671 252.376C30.7002 251.779 29.6543 251.154 28.6292 250.501C27.5414 249.808 26.4772 249.085 25.4364 248.332C24.652 246.876 24.0048 245.586 23.6518 244.892C23.0085 243.601 22.9536 241.754 23.032 240.416C23.032 240.279 23.032 240.15 23.0556 240.024C23.1222 239.185 23.2242 238.608 23.2242 238.608C22.643 237.831 22.1187 237.013 21.6553 236.161C21.3891 235.737 21.2376 235.252 21.216 234.752C21.2337 234.552 21.2151 234.35 21.1611 234.156C20.859 232.917 19.5608 230.787 18.3605 229.449C17.4662 228.465 17.4113 224.786 17.4976 222.177C17.5486 220.608 17.6466 219.455 17.6466 219.455C17.4709 219.342 17.3394 219.172 17.274 218.973C16.9586 218.114 16.7454 217.222 16.6386 216.313C16.6386 216.184 16.6033 216.055 16.5837 215.921C16.3327 214.121 16.2189 212.313 16.2189 212.313C13.3164 210.199 11.9357 206.9 11.2924 203.958L11.2101 203.566C10.8568 201.758 10.7068 199.916 10.7629 198.075C10.7629 197.898 10.7629 197.765 10.7629 197.682C10.7629 197.6 10.7629 197.584 10.7629 197.584C10.7629 197.584 11.1473 189.085 12.222 185.766C12.2652 185.625 12.3123 185.496 12.3593 185.374C12.4385 185.166 12.5411 184.967 12.6653 184.782C13.0575 184.26 13.336 183.276 13.5674 182.111C13.7282 181.303 13.8616 180.404 13.9596 179.51C14.0499 178.765 14.1205 178.024 14.1754 177.337C14.3283 175.501 14.3754 174.07 14.3754 174.07L13.6498 170.493C13.4497 169.516 13.2968 168.531 13.1909 167.547C13.1909 167.418 13.1595 167.288 13.1438 167.155C12.9603 165.337 12.9275 163.507 13.0457 161.683C13.0457 161.55 13.0457 161.42 13.0693 161.291C13.3755 157.138 14.4613 153.079 16.2699 149.328L16.466 148.935C16.7275 148.412 17.0021 147.899 17.2897 147.394C17.4976 147.021 17.7172 146.653 17.9447 146.288C18.5478 145.311 19.2025 144.367 19.9059 143.46C20.0079 143.326 20.1138 143.197 20.2197 143.068C21.4436 141.55 22.8038 140.148 24.2833 138.879C28.2448 135.474 31.8808 133.995 35.1834 133.881C49.6255 133.372 57.7252 158.914 59.0352 163.389C59.1608 163.821 59.2235 164.056 59.2235 164.056C59.2235 164.056 65.0756 169.912 63.3616 172.481C63.0292 173.047 62.8269 173.679 62.7693 174.333C62.2986 177.788 63.6479 183.48 63.6479 183.48C63.6479 183.48 64.1264 185.048 65.5228 188.806L65.9346 189.904C66.8093 192.258 67.0133 196.208 66.5112 199.746C66.0288 203.134 64.8952 206.131 63.0792 206.9C59.3647 208.469 60.3649 210.038 61.22 211.328C61.7281 212.253 62.1521 213.222 62.4869 214.223C63.0243 215.67 63.5224 217.192 63.7107 217.784C63.7656 217.949 63.793 218.039 63.793 218.039C64.3133 217.838 64.8538 217.693 65.4051 217.608C66.1072 217.51 66.8015 217.58 66.9348 218.181C67.0054 218.502 67.4094 218.883 67.9782 219.263C69.6648 220.424 72.787 221.64 72.787 221.64Z" fill="black"/>
<path d="M71.9317 221.64C71.9077 221.938 71.8321 222.23 71.7082 222.503C70.2098 226.202 61.6513 236.192 61.6513 236.192C61.2597 237.375 60.7893 238.531 60.2431 239.651C59.2966 241.584 58.2262 243.454 57.0386 245.249C54.5798 248.958 51.8558 252.484 48.888 255.8L48.7977 255.898C48.7977 255.898 48.4526 256.161 47.9035 256.498C46.9223 257.124 45.8411 257.578 44.7067 257.839L44.2282 257.698L43.5732 257.494C42.4749 257.149 41.3858 256.771 40.3059 256.361L39.6508 256.11C38.6049 255.707 37.5812 255.274 36.5796 254.811L35.9246 254.513C34.8787 254.027 33.8549 253.513 32.8534 252.972C32.4926 252.783 32.1356 252.579 31.7826 252.387C30.7157 251.791 29.6698 251.166 28.6447 250.512C27.5569 249.819 26.4927 249.096 25.452 248.343C24.9708 247.998 24.4949 247.644 24.0242 247.28C23.4947 246.276 23.0711 245.429 22.8083 244.903C22.165 243.613 22.1101 241.766 22.1886 240.428C22.1886 240.291 22.1886 240.161 22.2121 240.036C22.2788 239.196 22.3808 238.62 22.3808 238.62C22.3808 238.62 22.0631 238.192 21.6787 237.612C21.4629 237.29 21.2315 236.918 21.0236 236.549C20.6314 235.859 20.3254 235.16 20.3843 234.764C20.3922 234.696 20.3922 234.628 20.3843 234.56C20.3784 234.428 20.3587 234.296 20.3255 234.168C20.0234 232.929 18.7212 230.799 17.521 229.461C16.6267 228.477 16.5718 224.798 16.6541 222.189C16.6541 222.056 16.6541 221.926 16.6541 221.797C16.7091 220.444 16.7914 219.467 16.7914 219.467C16.3482 219.275 16.0069 217.851 15.7873 216.329L15.7285 215.937C15.4774 214.137 15.3637 212.328 15.3637 212.328C12.4612 210.214 11.0805 206.916 10.4411 203.974C9.99573 201.913 9.82428 199.803 9.93124 197.698C9.93124 197.635 9.93124 197.6 9.93124 197.6C9.93124 197.6 10.2686 189.057 11.3433 185.735C11.3864 185.594 11.4335 185.464 11.4806 185.343C11.5747 185.139 11.6918 184.947 11.8297 184.77C12.4258 183.938 12.822 181.938 13.0809 179.891L13.1279 179.498C13.4535 176.753 13.5437 174.058 13.5437 174.058L12.8142 170.481C12.6154 169.5 12.4625 168.518 12.3552 167.535C12.3356 167.406 12.3239 167.272 12.3082 167.143C12.1248 165.325 12.092 163.495 12.2101 161.671C12.2101 161.538 12.2101 161.409 12.2376 161.279C12.542 157.125 13.6279 153.067 15.4382 149.316C15.501 149.183 15.5637 149.053 15.6343 148.924C16.1386 147.905 16.6991 146.915 17.3131 145.958C17.5249 145.625 17.7406 145.296 17.9681 144.97C18.3251 144.452 18.6977 143.942 19.086 143.448L19.3998 143.056C20.6132 141.544 21.9615 140.146 23.428 138.879C27.7426 135.18 31.665 133.752 35.1951 133.881C49.0998 134.38 56.9052 159.004 58.1878 163.389C58.3134 163.821 58.3761 164.056 58.3761 164.056C58.3761 164.056 64.2322 169.912 62.5181 172.481C62.1858 173.047 61.9835 173.679 61.9258 174.333C61.4512 177.788 62.8044 183.48 62.8044 183.48C62.8044 183.48 63.283 185.048 64.6793 188.806C64.8048 189.155 64.9421 189.52 65.0716 189.904C65.9462 192.258 66.1502 196.208 65.6481 199.746C65.1657 203.138 64.0361 206.131 62.2161 206.9C58.5056 208.469 59.5018 210.038 60.3608 211.328C60.8689 212.253 61.2929 213.222 61.6277 214.223C62.3063 216.07 62.93 218.039 62.93 218.039C63.1867 217.94 63.4485 217.855 63.7144 217.784C64.2601 217.605 64.8379 217.545 65.4089 217.608C65.5669 217.62 65.7169 217.682 65.8374 217.785C65.958 217.888 66.0427 218.026 66.0796 218.181C66.1855 218.651 66.9974 219.236 67.9819 219.789C69.2603 220.484 70.5792 221.103 71.9317 221.64Z" fill="#CED7E7"/>
<path opacity="0.1" d="M20.3062 183.923C21.6633 183.852 36.2309 178.212 39.2315 180.138C42.2321 182.064 60.8044 194.56 60.8044 194.56C60.8044 194.56 49.1668 179.353 39.0275 175.784C28.8882 172.215 20.3062 183.923 20.3062 183.923Z" fill="black"/>
<path opacity="0.1" d="M41.2476 206.916C41.2476 206.916 55.8151 209.842 58.0274 211.842L41.2476 206.916Z" fill="black"/>
<path opacity="0.1" d="M38.4434 228.7C38.2316 228.916 32.9521 240.765 33.3757 240.765C33.7994 240.765 38.3022 233.705 38.3022 233.705L38.4434 228.7Z" fill="black"/>
<path opacity="0.1" d="M48.3703 214.482C48.3703 214.482 44.0871 215.984 44.5852 216.125C45.0834 216.266 48.2252 215.125 48.3703 214.482Z" fill="black"/>
<path opacity="0.1" d="M44.0874 232.407C44.8013 233.905 47.0841 238.404 47.5861 237.69C48.0882 236.976 44.0874 232.407 44.0874 232.407Z" fill="black"/>
<path opacity="0.1" d="M97.5568 113.646L96.9449 114.517C96.9449 114.517 92.0851 111.093 90.0886 109.379C88.0922 107.665 83.3775 115.517 79.663 117.659C75.9486 119.8 69.6689 120.373 69.6689 120.373C69.6689 120.373 64.813 115.517 64.9621 114.097C65.1111 112.677 62.6793 112.242 62.5342 111.242C62.389 110.242 61.534 107.386 60.3926 105.958C59.7885 105.205 59.7022 102.848 59.7571 100.796C60.1494 100.718 60.3926 100.675 60.3926 100.675C61.0022 99.5671 61.7728 98.5559 62.6793 97.6743C63.9658 96.5329 65.9623 89.5355 65.9623 89.5355C67.1037 85.6798 69.3865 86.8212 69.3865 86.8212C69.3865 92.6772 75.3877 94.8188 78.3843 97.2468C81.381 99.6747 86.0957 105.958 89.8101 107.245C92.8578 108.284 96.4232 112.305 97.5568 113.646Z" fill="black"/>
<path d="M97.5569 112.787L96.945 113.662C96.945 113.662 92.0656 110.245 90.0691 108.52C88.0726 106.794 83.358 114.658 79.6435 116.8C75.9291 118.941 69.6494 119.518 69.6494 119.518C69.6494 119.518 64.7935 114.658 64.9426 113.242C65.0916 111.826 62.6598 111.387 62.5146 110.383C62.3695 109.379 61.5144 106.527 60.373 105.099C59.769 104.346 59.6827 101.989 59.7376 99.9375L60.373 99.8198C60.9827 98.712 61.7533 97.7008 62.6598 96.8192C63.9463 95.6739 65.9428 88.6804 65.9428 88.6804C67.0842 84.8247 69.367 85.9622 69.367 85.9622C69.367 91.8182 75.3682 93.9638 78.3648 96.3917C81.3615 98.8196 86.0762 105.099 89.7906 106.386C92.8579 107.441 96.4233 111.446 97.5569 112.787Z" fill="#CED7E7"/>
<path opacity="0.1" d="M97.9213 113.948C97.9213 113.948 93.7126 116.231 90.4257 116.447C89.9954 116.467 89.5642 116.442 89.1392 116.372C89.1392 116.372 92.7673 113.662 96.1366 113.109L97.9213 113.948Z" fill="black"/>
<path opacity="0.1" d="M106.491 125.586C106.491 125.586 101.184 123.519 99.4312 126.629C99.49 125.201 99.5135 124.017 99.5135 124.017L105.299 122.871C105.299 122.871 105.856 123.903 106.507 125.292C106.491 125.476 106.491 125.586 106.491 125.586Z" fill="black"/>
<path d="M89.1392 116.372C89.1392 116.372 95.4973 112.556 98.5528 112.877C101.757 113.211 107.966 113.446 107.966 113.446C107.966 113.446 105.825 118.302 106.111 119.302C106.397 120.302 106.468 125.158 106.468 125.158C106.468 125.158 100.043 122.66 98.9725 127.3C98.9725 127.3 95.4737 122.087 93.1164 120.514C91.5522 119.384 90.2049 117.981 89.1392 116.372Z" fill="#63667E"/>
<path opacity="0.1" d="M125.056 120.804C123.201 120.804 116.631 116.658 115.203 113.948C113.776 111.238 111.775 114.231 109.92 115.235C108.743 115.878 104.08 114.533 101.565 113.556C102.84 112.689 105.664 110.249 106.492 109.665C107.488 108.947 108.492 97.3802 108.492 97.3802C112.062 95.5249 115.917 112.375 115.917 112.375C115.917 112.375 122.632 114.376 123.201 115.803C123.311 116.086 123.817 116.588 124.578 117.196C125.362 119.173 125.794 120.804 125.056 120.804Z" fill="black"/>
<path d="M125.056 119.945C123.201 119.945 116.631 115.803 115.203 113.093C113.775 110.383 111.775 113.375 109.92 114.376C108.743 115.019 105.005 113.776 102.491 112.807C103.765 111.944 105.664 109.402 106.492 108.814C107.488 108.1 108.492 96.5329 108.492 96.5329C112.061 94.6776 115.917 111.528 115.917 111.528C115.917 111.528 122.632 113.528 123.201 114.956C123.311 115.239 123.817 115.741 124.577 116.349C125.362 118.314 125.793 119.945 125.056 119.945Z" fill="#CED7E7"/>
<path d="M150.43 245.056L212.525 193.281C213.144 192.758 213.934 192.479 214.745 192.497L237.91 193.105C237.91 193.105 239.514 194.282 237.161 196.855L178.585 244.923C177.952 245.441 177.166 245.736 176.349 245.762L151.018 246.602C150.836 246.608 150.657 246.556 150.506 246.455C150.354 246.355 150.238 246.209 150.173 246.039C150.109 245.869 150.099 245.683 150.145 245.507C150.191 245.331 150.29 245.173 150.43 245.056Z" fill="#6C63FF"/>
<path d="M180.467 238.687C180.467 238.687 194.031 258.11 209.1 240.044C224.17 221.977 219.812 212.485 215.243 211.983C210.673 211.481 184.962 231.262 180.467 238.687Z" fill="#FFA2A2"/>
<path opacity="0.1" d="M271.948 21.4435C271.948 21.4435 289.43 -12.4847 310.093 5.01283C310.093 5.01283 314.603 6.6563 314.262 11.4259C314.262 11.4259 312.524 10.4727 311.144 14.1166C310.637 15.4095 309.978 16.6379 309.183 17.7761C308.125 19.3138 306.597 20.4671 304.829 21.0631C304.829 21.0631 295.556 28.0095 278.38 22.6516C278.38 22.6516 273.525 23.3498 272.74 22.7458L278.384 18.6194C278.384 18.6194 281.252 22.8752 285.445 23.3616C285.445 23.3616 278.384 18.9293 279.192 17.9683C279.357 17.7722 282.283 15.917 282.283 15.917C282.283 15.917 287.3 23.2949 293.803 23.8401C293.803 23.8401 284.691 19.6863 283.385 15.2109L287.963 12.6575C287.963 12.6575 292.881 20.7179 300.267 21.62C300.267 21.62 290.893 16.9485 289.002 12.1672L293.846 10.2766C293.846 10.2766 298.8 18.0429 304.946 18.7528C304.946 18.7528 294.662 12.2613 294.984 9.91577C294.984 9.91577 299.538 8.44881 300.934 8.641C300.934 8.641 304.617 14.1323 308.226 14.2303C308.226 14.2303 301.813 9.16268 302.236 8.38213C302.236 8.38213 308.677 8.04873 312.042 9.6059C312.042 9.6059 307.257 6.94263 302.236 7.37409C302.236 7.37409 304.507 4.70297 307.469 4.11462C307.469 4.11462 303.919 2.65551 300.675 7.47215C300.675 7.47215 295.666 7.93106 295.046 8.48803C295.046 8.48803 297.58 3.27916 300.699 1.06303C300.699 1.06303 296.051 1.8828 293.748 8.94303L288.837 10.7355C288.837 10.7355 291.822 3.67531 294.454 1.49449C294.454 1.49449 289.841 3.06343 287.637 11.3004L283.119 13.7557C283.119 13.7557 285.225 7.47999 287.629 4.41664C287.629 4.41664 283.664 6.79358 281.848 14.5049L279.024 16.4935C279.024 16.4935 280.644 11.9358 281.228 10.6689C281.812 9.40194 281.518 9.13914 281.518 9.13914C279.555 11.4601 278.275 14.2803 277.82 17.2859C277.82 17.2859 272.273 21.7573 271.948 21.4435Z" fill="#6C63FF"/>
<path opacity="0.1" d="M344.249 39.5883C344.249 39.5883 352.148 24.2559 361.483 32.1633C361.483 32.1633 363.523 32.9046 363.366 35.058C363.366 35.058 362.582 34.6305 361.958 36.2778C361.732 36.8614 361.437 37.4157 361.079 37.9292C360.602 38.6222 359.914 39.1434 359.118 39.4157C359.118 39.4157 354.925 42.5536 347.163 40.1335C347.163 40.1335 344.97 40.4473 344.617 40.1767L347.167 38.3096C347.167 38.3096 348.461 40.2355 350.36 40.4512C350.36 40.4512 347.175 38.4508 347.535 38.0154C347.606 37.9292 348.928 37.0898 348.928 37.0898C348.928 37.0898 351.195 40.4238 354.137 40.6709C354.137 40.6709 350.018 38.7921 349.43 36.7485L351.501 35.5993C351.501 35.5993 353.721 39.2431 357.059 39.6511C357.059 39.6511 352.823 37.5408 351.96 35.3796L354.149 34.5246C354.149 34.5246 356.384 38.0351 359.161 38.3567C359.161 38.3567 354.513 35.4228 354.662 34.3637C354.662 34.3637 356.718 33.7009 357.349 33.7872C357.349 33.7872 359.012 36.27 360.644 36.3092C360.644 36.3092 357.745 34.0225 357.938 33.6695C357.938 33.6695 360.848 33.5204 362.362 34.2225C362.362 34.2225 360.201 33.0184 357.938 33.2145C358.562 32.5044 359.38 31.9919 360.291 31.7397C360.291 31.7397 358.687 31.0807 357.22 33.2576C357.22 33.2576 354.957 33.4655 354.678 33.7166C354.678 33.7166 355.823 31.3631 357.231 30.3629C357.231 30.3629 355.129 30.7317 354.094 33.9244L351.897 34.7481C351.897 34.7481 353.242 31.5593 354.435 30.5708C354.435 30.5708 352.348 31.2808 351.352 34.9992L349.312 36.1053C349.312 36.1053 350.261 33.2655 351.348 31.8848C351.348 31.8848 349.555 32.9595 348.74 36.4426L347.461 37.3408C347.461 37.3408 348.194 35.2816 348.457 34.7089C348.72 34.1362 348.587 34.0186 348.587 34.0186C347.7 35.071 347.121 36.3485 346.916 37.7095C346.916 37.7095 344.386 39.7295 344.249 39.5883Z" fill="#6C63FF"/>
<path opacity="0.1" d="M258.651 57.4272C258.651 57.4272 266.55 42.0947 275.909 50.0022C275.909 50.0022 277.945 50.7435 277.792 52.9008C277.792 52.9008 277.007 52.4693 276.384 54.1167C276.156 54.6996 275.862 55.2538 275.505 55.768C275.023 56.4645 274.328 56.986 273.524 57.2546C273.524 57.2546 269.335 60.3925 261.573 57.9724C261.573 57.9724 259.38 58.2901 259.027 58.0155L261.577 56.1485C261.577 56.1485 262.871 58.0744 264.766 58.294C264.766 58.294 261.581 56.2897 261.942 55.8543C262.016 55.768 263.338 54.9286 263.338 54.9286C263.338 54.9286 265.605 58.2626 268.543 58.5097C268.543 58.5097 264.428 56.6309 263.836 54.5874L265.907 53.4421C265.907 53.4421 268.131 57.082 271.469 57.4899C271.469 57.4899 267.233 55.3797 266.37 53.2185L268.559 52.3634C268.559 52.3634 270.798 55.8739 273.575 56.1956C273.575 56.1956 268.927 53.2616 269.073 52.2026C269.073 52.2026 271.132 51.5397 271.763 51.626C271.763 51.626 273.426 54.1089 275.058 54.152C275.058 54.152 272.159 51.8614 272.352 51.5084C272.352 51.5084 275.258 51.3593 276.776 52.0614C276.776 52.0614 274.611 50.8572 272.348 51.0534C272.972 50.3433 273.79 49.8308 274.701 49.5786C274.701 49.5786 273.101 48.9196 271.634 51.0965C271.634 51.0965 269.371 51.3044 269.092 51.5554C269.092 51.5554 270.234 49.202 271.646 48.2018C271.646 48.2018 269.543 48.5705 268.508 51.7633L266.284 52.587C266.284 52.587 267.633 49.3981 268.822 48.4136C268.822 48.4136 266.739 49.1196 265.742 52.838L263.699 53.9441C263.699 53.9441 264.652 51.1043 265.739 49.7237C265.739 49.7237 263.946 50.7984 263.126 54.2815L261.848 55.1797C261.848 55.1797 262.581 53.1204 262.844 52.5478C263.107 51.9751 262.977 51.8574 262.977 51.8574C262.088 52.9087 261.51 54.1868 261.306 55.5484C261.306 55.5484 258.788 57.5684 258.651 57.4272Z" fill="#6C63FF"/>
</svg>
