<svg width="19" height="19" viewBox="0 0 19 19" fill="none" xmlns="http://www.w3.org/2000/svg">
<path fill-rule="evenodd" clip-rule="evenodd" d="M11.1201 4.77586H2.76735C2.11393 4.77586 1.58366 5.30612 1.58366 5.95955V16.2417C1.58366 16.8951 2.11393 17.4254 2.76735 17.4254H13.0732C13.7267 17.4254 14.2569 16.8951 14.2569 16.2417V7.94398H15.8406V16.6357C15.8406 17.9457 14.7769 19.0094 13.4665 19.0098H2.37411C1.06369 19.0098 0 17.9457 0 16.6357V5.56551C0 4.2551 1.06369 3.19141 2.37411 3.19141H11.1201V4.77586Z" fill="white"/>
<path fill-rule="evenodd" clip-rule="evenodd" d="M19.0001 6.85897H17.414V2.70834L6.36761 13.7544L5.24609 12.6329L16.2929 1.58604H12.1411V0H18.9993L19.0001 0.000396175V6.85897Z" fill="white"/>
</svg>
