<svg width="368" height="353" viewBox="0 0 368 353" fill="none" xmlns="http://www.w3.org/2000/svg">
  <path d="M309.526 83.667h-1.932V30.672A30.67 30.67 0 0 0 276.922 0h-112.28a30.67 30.67 0 0 0-30.672 30.671v290.736a30.67 30.67 0 0 0 30.672 30.672h112.279a30.673 30.673 0 0 0 30.672-30.672V121.39h1.932z" fill="#3F3D56"/>
  <path d="M301.302 28.618V323.46a23.265 23.265 0 0 1-23.254 23.259H163.465a23.267 23.267 0 0 1-23.27-23.259V28.618a23.265 23.265 0 0 1 23.269-23.26h13.899a11.065 11.065 0 0 0 5.039 13.926c1.599.853 3.382 1.3 5.194 1.303h65.326a11.062 11.062 0 0 0 10.233-15.228h14.888a23.26 23.26 0 0 1 23.259 23.254z" fill="#fff"/>
  <path d="M220.727 146.979c26.42 0 47.837-21.418 47.837-47.838s-21.417-47.837-47.837-47.837c-26.419 0-47.837 21.418-47.837 47.837s21.418 47.838 47.837 47.838" fill="#6C63FF"/>
  <path d="M272.9 198.45H171.08a1.886 1.886 0 0 1-1.886-1.885v-25.257a1.89 1.89 0 0 1 1.886-1.885H272.9a1.885 1.885 0 0 1 1.886 1.885v25.257c-.001.5-.2.979-.553 1.333a1.9 1.9 0 0 1-1.333.553zm-101.82-28.273a1.13 1.13 0 0 0-1.132 1.131v25.257a1.133 1.133 0 0 0 1.132 1.132H272.9a1.133 1.133 0 0 0 1.132-1.132v-25.257a1.13 1.13 0 0 0-1.132-1.131z" fill="#E6E6E6"/>
  <path d="M202.568 178.519a1.32 1.32 0 0 0-1.319 1.32 1.32 1.32 0 0 0 1.319 1.319h62.224a1.315 1.315 0 0 0 1.369-1.268 1.32 1.32 0 0 0-1.268-1.37l-.058-.001zm0 7.918a1.32 1.32 0 0 0-1.319 1.32 1.32 1.32 0 0 0 1.319 1.32h62.224a1.32 1.32 0 0 0 .101-2.639l-.058-.001zm70.332 54.112H171.08a1.89 1.89 0 0 1-1.886-1.886v-25.257a1.89 1.89 0 0 1 1.886-1.885H272.9a1.885 1.885 0 0 1 1.886 1.885v25.258a1.89 1.89 0 0 1-1.886 1.885m-101.82-28.274a1.13 1.13 0 0 0-1.132 1.131v25.258a1.13 1.13 0 0 0 1.132 1.131H272.9a1.133 1.133 0 0 0 1.132-1.131v-25.258a1.13 1.13 0 0 0-1.132-1.131z" fill="#E6E6E6"/>
  <path d="M202.568 220.753a1.319 1.319 0 0 0-.933 2.253c.248.248.583.387.933.387h62.224a1.32 1.32 0 0 0 .043-2.639zm0 7.92a1.323 1.323 0 0 0-1.319 1.32 1.32 1.32 0 0 0 1.319 1.32h62.224a1.32 1.32 0 0 0 .043-2.639zm70.332 54.111H171.08a1.885 1.885 0 0 1-1.886-1.885v-25.257a1.89 1.89 0 0 1 1.886-1.886H272.9c.5.001.979.2 1.333.553.353.354.552.833.553 1.333v25.257c-.001.5-.2.979-.553 1.333a1.9 1.9 0 0 1-1.333.553zM171.08 254.51a1.137 1.137 0 0 0-1.132 1.132v25.257a1.133 1.133 0 0 0 1.132 1.132H272.9a1.137 1.137 0 0 0 1.132-1.132v-25.257a1.137 1.137 0 0 0-1.132-1.132z" fill="#E6E6E6"/>
  <path d="M202.568 262.99a1.323 1.323 0 0 0-1.319 1.32 1.32 1.32 0 0 0 1.319 1.32h62.224a1.3 1.3 0 0 0 .947-.35 1.33 1.33 0 0 0 .422-.918 1.31 1.31 0 0 0-.767-1.25 1.3 1.3 0 0 0-.501-.12l-.058-.001zm0 7.92a1.319 1.319 0 0 0-.933 2.253c.248.248.583.387.933.387h62.224a1.3 1.3 0 0 0 .947-.351 1.3 1.3 0 0 0 .422-.918 1.31 1.31 0 0 0-.767-1.25 1.3 1.3 0 0 0-.501-.119l-.058-.001zM366.824 353H.96c-.53 0-.96-.232-.96-.518 0-.285.43-.517.96-.517h365.864c.53 0 .96.232.96.517s-.429.518-.96.518m-15.495-20.194a9.65 9.65 0 0 1-9.316-1.642c-3.263-2.738-4.286-7.25-5.119-11.428l-2.462-12.358 5.155 3.55c3.707 2.552 7.497 5.186 10.064 8.884 2.567 3.697 3.687 8.744 1.625 12.744" fill="#E6E6E6"/>
  <path d="M350.533 348.627c.649-4.727 1.316-9.515.861-14.292-.404-4.243-1.699-8.387-4.334-11.784a19.6 19.6 0 0 0-5.03-4.558c-.503-.318-.966.48-.465.796a18.63 18.63 0 0 1 7.372 8.895c1.605 4.082 1.863 8.532 1.585 12.869-.167 2.622-.521 5.227-.879 7.829a.477.477 0 0 0 .322.567.465.465 0 0 0 .567-.322z" fill="#F2F2F2"/>
  <path d="M345.863 341.042a7.1 7.1 0 0 1-6.188 3.194c-3.132-.149-5.744-2.335-8.094-4.409l-6.953-6.14 4.602-.22c3.309-.159 6.704-.306 9.858.714s6.059 3.477 6.635 6.737" fill="#E6E6E6"/>
  <path d="M352.367 351.344c-3.121-5.527-6.747-11.669-13.22-13.632a14.8 14.8 0 0 0-5.56-.574c-.59.049-.443.961.149.91a13.7 13.7 0 0 1 8.873 2.347c2.502 1.703 4.45 4.071 6.099 6.582 1.01 1.536 1.914 3.141 2.819 4.742.287.512 1.132.143.84-.375" fill="#F2F2F2"/>
  <path d="M183.782 191.701a7.92 7.92 0 1 0 0-15.84 7.92 7.92 0 0 0 0 15.84" fill="#6C63FF"/>
  <path d="M179.991 182.302c-.091 0-.165.591-.165 1.32s.074 1.32.165 1.32h7.787c.091.012.166-.569.168-1.298a2.94 2.94 0 0 0-.163-1.341z" fill="#E6E6E6"/>
  <path d="M183.782 233.954a7.92 7.92 0 1 0 0-15.84 7.92 7.92 0 0 0 0 15.84" fill="#6C63FF"/>
  <path d="M179.991 224.555c-.091 0-.165.591-.165 1.32s.074 1.32.165 1.32h7.787c.091.012.166-.569.168-1.298a2.94 2.94 0 0 0-.163-1.341z" fill="#E6E6E6"/>
  <path d="M183.782 276.19a7.92 7.92 0 1 0 0-15.84 7.92 7.92 0 0 0 0 15.84" fill="#6C63FF"/>
  <path d="M179.991 266.791c-.091 0-.165.591-.165 1.32s.074 1.32.165 1.32h7.787c.091.012.166-.569.168-1.298a2.94 2.94 0 0 0-.163-1.341z" fill="#E6E6E6"/>
  <path d="m210.394 86.006-2.802 2.802 23.469 23.469 2.802-2.802z" fill="#fff"/>
  <path d="m233.864 88.808-2.803-2.802-23.469 23.469 2.802 2.803z" fill="#fff"/>
  <path d="M44.713 225.964a4.99 4.99 0 0 0 3.006-2.956 4.98 4.98 0 0 0-.337-4.201l11.674-13.308-9.113-1.258-9.688 12.831a5.01 5.01 0 0 0 .9 8.833 5 5 0 0 0 3.558.059m14.079 117.942-8.142-.001-3.873-31.404h12.017z" fill="#9F616A"/>
  <path d="m60.868 351.798-26.253-.001v-.332a10.22 10.22 0 0 1 10.219-10.218H60.87z" fill="#2F2E41"/>
  <path d="m101.412 337.092-7.775 2.414-13.012-28.843L92.1 307.1z" fill="#9F616A"/>
  <path d="m105.736 344.014-25.073 7.784-.098-.317a10.22 10.22 0 0 1 6.728-12.789h.001l15.314-4.754z" fill="#2F2E41"/>
  <path d="M52.557 199.118 40.5 212.928l9.44.849z" fill="#E6E6E6"/>
  <path d="M47.846 216.918s-4.189 2.094-4.713 11.519c-.523 9.424 1.571 34.033 1.571 34.033s-2.094 10.994 0 20.942c2.094 9.947-2.094 46.071.524 46.071s16.23 1.571 16.753 0c.524-1.571 1.048-25.131 1.048-25.131s4.188-12.041 0-19.369c0 0 14.624 25.536 24.083 45.025 2.07 4.265 17.801-.524 15.183-5.236s-8.9-26.177-8.9-26.177-4.712-15.707-13.089-22.513l4.189-33.508s8.9-22.513 3.666-25.654c-5.235-3.141-40.315-.002-40.315-.002" fill="#2F2E41"/>
  <path d="M63.552 131.578c7.518 0 13.612-6.094 13.612-13.612s-6.094-13.612-13.612-13.612-13.612 6.094-13.612 13.612 6.094 13.612 13.612 13.612" fill="#A0616A"/>
  <path d="m78.735 132.626-16.923 9.947s-6.48 3.649-8.9 9.948c-2.58 6.712-1.08 16.163 0 18.324 2.094 4.188-.878 14.659-.878 14.659l-2.618 24.084s-9.423 8.9-2.094 9.947 20.419-.524 28.272 0 16.754 1.571 14.136-3.666-5.759-8.9-2.618-19.369c2.458-8.194 2.352-38.83 2.19-51.768a10.41 10.41 0 0 0-5.059-8.802z" fill="#E5E5E5"/>
  <path opacity=".1" d="m71.146 149.118 1.57 31.937-15.221 30.824-2.582-.982 15.707-28.795zM88.42 187.86v-3.665l-17.798 29.32z" fill="#000"/>
  <path d="m53.89 105.356-2.248-.899s4.706-5.18 11.252-4.73l-1.842-2.028s4.5-1.801 8.593 2.928c2.15 2.487 4.64 5.409 6.192 8.701h2.41l-1.005 2.215 3.52 2.215-3.614-.396a12.26 12.26 0 0 1-.341 5.736l.099 1.75s-4.19-6.484-4.19-7.383v2.252s-2.251-2.027-2.251-3.378l-1.228 1.577-.614-2.477-7.57 2.477 1.227-2.029-4.706.676 1.842-2.477s-5.32 2.928-5.524 5.406c-.205 2.478-2.864 5.63-2.864 5.63l-1.227-2.252s-1.841-10.135 4.09-13.514" fill="#2F2E41"/>
  <path d="M62.697 227.445a4.98 4.98 0 0 0 2.347-5.599 5 5 0 0 0-.99-1.918l9.126-15.169-9.191.38-7.258 14.347a5.009 5.009 0 0 0 5.966 7.959" fill="#9F616A"/>
  <path d="m83.447 139.433 3.927-.785s11.78 8.638 8.115 25.915-19.895 43.455-19.895 43.455-3.666 4.712-4.712 5.759-3.141 0-2.094 1.571-1.571 2.618-1.571 2.618-11.518 0-10.471-4.189c1.047-4.188 18.848-34.033 18.848-34.033l-2.618-27.748s-2.095-13.61 10.471-12.563" fill="#E5E5E5"/>
</svg>
