<svg width="368" height="353" viewBox="0 0 368 353" fill="none" xmlns="http://www.w3.org/2000/svg">
<path d="M309.526 83.667H307.594V30.6719C307.594 22.5372 304.363 14.7357 298.61 8.9836C292.858 3.2315 285.057 4.00099e-09 276.922 4.00099e-09H164.642C160.615 -6.50518e-05 156.626 0.793224 152.905 2.33457C149.183 3.87592 145.802 6.13514 142.954 8.98325C140.106 11.8314 137.846 15.2126 136.305 18.9338C134.763 22.6551 133.97 26.6435 133.97 30.6714V321.407C133.97 329.541 137.201 337.343 142.954 343.095C148.706 348.847 156.507 352.079 164.642 352.079H276.921C285.055 352.079 292.857 348.847 298.609 343.095C304.361 337.343 307.593 329.541 307.593 321.407V121.39H309.525L309.526 83.667Z" fill="#3F3D56"/>
<path d="M301.302 28.6175V323.46C301.301 329.628 298.851 335.542 294.491 339.904C290.13 344.266 284.216 346.717 278.048 346.719H163.465C157.295 346.72 151.377 344.27 147.013 339.909C142.649 335.547 140.197 329.63 140.195 323.46V28.6175C140.197 22.4477 142.649 16.5312 147.013 12.1694C151.376 7.80766 157.294 5.35773 163.464 5.35852H177.363C176.681 7.03689 176.421 8.85721 176.607 10.6595C176.793 12.4618 177.418 14.1908 178.429 15.6947C179.439 17.1985 180.804 18.4311 182.402 19.2841C184.001 20.1371 185.784 20.5845 187.596 20.5867H252.922C254.734 20.5845 256.517 20.1371 258.116 19.2841C259.714 18.4311 261.079 17.1985 262.089 15.6947C263.1 14.1908 263.725 12.4618 263.911 10.6595C264.097 8.85721 263.837 7.03689 263.155 5.35852H278.043C284.211 5.35957 290.126 7.80979 294.487 12.1705C298.849 16.5312 301.3 22.4455 301.302 28.613V28.6175Z" fill="white"/>
<path d="M220.727 146.979C247.147 146.979 268.564 125.561 268.564 99.1414C268.564 72.7217 247.147 51.3043 220.727 51.3043C194.308 51.3043 172.89 72.7217 172.89 99.1414C172.89 125.561 194.308 146.979 220.727 146.979Z" fill="#6C63FF"/>
<path d="M272.9 198.45H171.08C170.58 198.45 170.1 198.251 169.747 197.898C169.393 197.544 169.195 197.065 169.194 196.565V171.308C169.195 170.808 169.394 170.329 169.747 169.976C170.1 169.622 170.58 169.423 171.08 169.423H272.9C273.4 169.423 273.879 169.622 274.233 169.976C274.586 170.329 274.785 170.808 274.786 171.308V196.565C274.785 197.065 274.586 197.544 274.233 197.898C273.879 198.251 273.4 198.45 272.9 198.451V198.45ZM171.08 170.177C170.78 170.177 170.492 170.296 170.28 170.508C170.068 170.72 169.948 171.008 169.948 171.308V196.565C169.948 196.865 170.068 197.153 170.28 197.365C170.492 197.577 170.78 197.697 171.08 197.697H272.9C273.2 197.697 273.488 197.577 273.7 197.365C273.912 197.153 274.031 196.865 274.032 196.565V171.308C274.031 171.008 273.912 170.72 273.7 170.508C273.488 170.296 273.2 170.177 272.9 170.177H171.08Z" fill="#E6E6E6"/>
<path d="M202.568 178.519C202.218 178.519 201.883 178.658 201.635 178.905C201.388 179.153 201.249 179.488 201.249 179.839C201.249 180.189 201.388 180.524 201.635 180.772C201.883 181.019 202.218 181.158 202.568 181.158H264.792C265.142 181.172 265.482 181.046 265.739 180.808C265.996 180.57 266.148 180.24 266.161 179.89C266.175 179.54 266.049 179.199 265.811 178.942C265.573 178.685 265.243 178.533 264.893 178.52C264.873 178.519 264.854 178.519 264.835 178.519L202.568 178.519Z" fill="#E6E6E6"/>
<path d="M202.568 186.437C202.218 186.437 201.883 186.576 201.635 186.823C201.388 187.071 201.249 187.407 201.249 187.757C201.249 188.107 201.388 188.442 201.635 188.69C201.883 188.937 202.218 189.077 202.568 189.077H264.792C265.142 189.09 265.482 188.964 265.739 188.726C265.996 188.488 266.148 188.158 266.161 187.808C266.175 187.458 266.049 187.117 265.811 186.86C265.573 186.603 265.243 186.451 264.893 186.438C264.873 186.437 264.854 186.437 264.835 186.437L202.568 186.437Z" fill="#E6E6E6"/>
<path d="M272.9 240.549H171.08C170.58 240.548 170.1 240.349 169.747 239.996C169.393 239.642 169.195 239.163 169.194 238.663V213.406C169.195 212.906 169.394 212.427 169.747 212.074C170.1 211.72 170.58 211.521 171.08 211.521H272.9C273.4 211.521 273.879 211.72 274.233 212.074C274.586 212.427 274.785 212.906 274.786 213.406V238.664C274.785 239.163 274.586 239.642 274.232 239.996C273.879 240.349 273.4 240.548 272.9 240.549ZM171.08 212.275C170.78 212.275 170.492 212.394 170.28 212.606C170.068 212.819 169.948 213.106 169.948 213.406V238.664C169.948 238.964 170.068 239.251 170.28 239.463C170.492 239.675 170.78 239.795 171.08 239.795H272.9C273.2 239.795 273.488 239.675 273.7 239.463C273.912 239.251 274.031 238.964 274.032 238.664V213.406C274.031 213.106 273.912 212.819 273.7 212.606C273.488 212.394 273.2 212.275 272.9 212.275H171.08Z" fill="#E6E6E6"/>
<path d="M202.568 220.753C202.218 220.753 201.883 220.892 201.635 221.14C201.388 221.387 201.249 221.723 201.249 222.073C201.249 222.423 201.388 222.759 201.635 223.006C201.883 223.254 202.218 223.393 202.568 223.393H264.792C265.137 223.391 265.467 223.254 265.713 223.011C265.958 222.769 266.099 222.44 266.104 222.094C266.11 221.749 265.98 221.416 265.743 221.165C265.506 220.915 265.18 220.767 264.835 220.754H202.568V220.753Z" fill="#E6E6E6"/>
<path d="M202.568 228.673C202.218 228.673 201.883 228.813 201.635 229.06C201.388 229.308 201.249 229.643 201.249 229.993C201.249 230.343 201.388 230.679 201.635 230.927C201.883 231.174 202.218 231.313 202.568 231.313H264.792C265.137 231.311 265.467 231.174 265.713 230.932C265.958 230.689 266.099 230.36 266.104 230.015C266.11 229.67 265.98 229.336 265.743 229.086C265.506 228.835 265.18 228.687 264.835 228.674H202.568V228.673Z" fill="#E6E6E6"/>
<path d="M272.9 282.784H171.08C170.58 282.784 170.1 282.585 169.747 282.231C169.393 281.878 169.195 281.399 169.194 280.899V255.642C169.195 255.142 169.394 254.663 169.747 254.309C170.1 253.956 170.58 253.757 171.08 253.756H272.9C273.4 253.757 273.879 253.956 274.233 254.309C274.586 254.663 274.785 255.142 274.786 255.642V280.899C274.785 281.399 274.586 281.878 274.233 282.232C273.879 282.585 273.4 282.784 272.9 282.785V282.784ZM171.08 254.51C170.78 254.511 170.492 254.63 170.28 254.842C170.068 255.054 169.948 255.342 169.948 255.642V280.899C169.948 281.199 170.068 281.487 170.28 281.699C170.492 281.911 170.78 282.03 171.08 282.031H272.9C273.2 282.03 273.488 281.911 273.7 281.699C273.912 281.487 274.031 281.199 274.032 280.899V255.642C274.031 255.342 273.912 255.054 273.7 254.842C273.488 254.63 273.2 254.511 272.9 254.51H171.08Z" fill="#E6E6E6"/>
<path d="M202.568 262.99C202.218 262.99 201.883 263.13 201.635 263.377C201.388 263.625 201.249 263.96 201.249 264.31C201.249 264.661 201.388 264.996 201.635 265.244C201.883 265.491 202.218 265.63 202.568 265.63H264.792C264.965 265.637 265.138 265.609 265.3 265.549C265.463 265.489 265.612 265.398 265.739 265.28C265.867 265.162 265.969 265.02 266.042 264.863C266.114 264.705 266.155 264.535 266.161 264.362C266.168 264.188 266.141 264.016 266.08 263.853C266.02 263.69 265.929 263.541 265.811 263.414C265.693 263.287 265.551 263.184 265.394 263.112C265.236 263.039 265.066 262.999 264.893 262.992C264.873 262.991 264.854 262.991 264.835 262.991L202.568 262.99Z" fill="#E6E6E6"/>
<path d="M202.568 270.91C202.218 270.91 201.883 271.049 201.635 271.297C201.388 271.544 201.249 271.88 201.249 272.23C201.249 272.58 201.388 272.916 201.635 273.163C201.883 273.411 202.218 273.55 202.568 273.55H264.792C264.965 273.557 265.138 273.529 265.3 273.469C265.463 273.409 265.612 273.317 265.739 273.199C265.867 273.082 265.969 272.94 266.042 272.782C266.114 272.625 266.155 272.455 266.161 272.281C266.168 272.108 266.141 271.935 266.08 271.773C266.02 271.61 265.929 271.461 265.811 271.334C265.693 271.207 265.551 271.104 265.394 271.031C265.236 270.959 265.066 270.918 264.893 270.912C264.873 270.911 264.854 270.911 264.835 270.911H202.568L202.568 270.91Z" fill="#E6E6E6"/>
<path d="M366.824 353H0.960056C0.429495 353 0 352.768 0 352.482C0 352.197 0.429991 351.965 0.960056 351.965H366.824C367.354 351.965 367.784 352.197 367.784 352.482C367.784 352.768 367.355 353 366.824 353Z" fill="#E6E6E6"/>
<path d="M351.329 332.806C349.766 333.355 348.088 333.493 346.456 333.205C344.824 332.918 343.294 332.215 342.013 331.164C338.75 328.426 337.727 323.914 336.894 319.736L334.432 307.378L339.587 310.928C343.294 313.48 347.084 316.114 349.651 319.812C352.218 323.509 353.338 328.556 351.276 332.556" fill="#E6E6E6"/>
<path d="M350.533 348.627C351.182 343.9 351.849 339.112 351.394 334.335C350.99 330.092 349.695 325.948 347.06 322.551C345.661 320.751 343.959 319.208 342.03 317.993C341.527 317.675 341.064 318.473 341.565 318.789C344.903 320.898 347.484 324.013 348.937 327.684C350.542 331.766 350.8 336.216 350.522 340.553C350.355 343.175 350.001 345.78 349.643 348.382C349.615 348.5 349.633 348.624 349.693 348.729C349.752 348.834 349.85 348.913 349.965 348.949C350.083 348.981 350.209 348.964 350.315 348.904C350.421 348.844 350.499 348.744 350.532 348.627H350.533Z" fill="#F2F2F2"/>
<path d="M345.863 341.042C345.193 342.061 344.271 342.89 343.188 343.45C342.104 344.009 340.894 344.28 339.675 344.236C336.543 344.087 333.931 341.901 331.581 339.827L324.628 333.687L329.23 333.467C332.539 333.308 335.934 333.161 339.088 334.181C342.242 335.202 345.147 337.658 345.723 340.918" fill="#E6E6E6"/>
<path d="M352.367 351.344C349.246 345.817 345.62 339.675 339.147 337.712C337.347 337.168 335.46 336.973 333.587 337.138C332.997 337.187 333.144 338.099 333.736 338.048C336.875 337.787 340.009 338.616 342.609 340.395C345.111 342.098 347.059 344.466 348.708 346.977C349.718 348.513 350.622 350.118 351.527 351.719C351.814 352.231 352.659 351.862 352.367 351.344Z" fill="#F2F2F2"/>
<path d="M183.782 191.701C188.156 191.701 191.702 188.155 191.702 183.782C191.702 179.408 188.156 175.862 183.782 175.862C179.409 175.862 175.863 179.408 175.863 183.782C175.863 188.155 179.409 191.701 183.782 191.701Z" fill="#6C63FF"/>
<path d="M179.991 182.302C179.9 182.302 179.826 182.893 179.826 183.622C179.826 184.351 179.9 184.942 179.991 184.942H187.778C187.869 184.954 187.944 184.373 187.946 183.644C187.996 183.191 187.941 182.731 187.783 182.303H179.991V182.302Z" fill="#E6E6E6"/>
<path d="M183.782 233.954C188.156 233.954 191.702 230.408 191.702 226.035C191.702 221.661 188.156 218.115 183.782 218.115C179.409 218.115 175.863 221.661 175.863 226.035C175.863 230.408 179.409 233.954 183.782 233.954Z" fill="#6C63FF"/>
<path d="M179.991 224.555C179.9 224.555 179.826 225.146 179.826 225.875C179.826 226.604 179.9 227.195 179.991 227.195H187.778C187.869 227.207 187.944 226.626 187.946 225.897C187.996 225.444 187.941 224.984 187.783 224.556L179.991 224.555Z" fill="#E6E6E6"/>
<path d="M183.782 276.19C188.156 276.19 191.702 272.644 191.702 268.27C191.702 263.897 188.156 260.351 183.782 260.351C179.409 260.351 175.863 263.897 175.863 268.27C175.863 272.644 179.409 276.19 183.782 276.19Z" fill="#6C63FF"/>
<path d="M179.991 266.791C179.9 266.791 179.826 267.382 179.826 268.111C179.826 268.84 179.9 269.431 179.991 269.431H187.778C187.869 269.443 187.944 268.862 187.946 268.133C187.996 267.679 187.941 267.22 187.783 266.792L179.991 266.791Z" fill="#E6E6E6"/>
<path d="M210.394 86.0055L207.592 88.8079L231.061 112.277L233.863 109.475L210.394 86.0055Z" fill="white"/>
<path d="M233.864 88.808L231.061 86.0056L207.592 109.475L210.394 112.278L233.864 88.808Z" fill="white"/>
<path d="M44.7133 225.964C45.3999 225.721 46.0248 225.33 46.544 224.82C47.0633 224.309 47.4643 223.691 47.7187 223.008C47.9732 222.326 48.075 221.596 48.0168 220.87C47.9587 220.144 47.7421 219.44 47.3824 218.807L59.0563 205.499L49.9434 204.241L40.2547 217.072C39.2311 217.747 38.4906 218.774 38.1735 219.958C37.8565 221.142 37.9849 222.402 38.5345 223.498C39.0841 224.594 40.0166 225.45 41.1554 225.905C42.2942 226.359 43.5601 226.38 44.7133 225.964Z" fill="#9F616A"/>
<path d="M58.792 343.906L50.6503 343.905L46.7769 312.501L58.7935 312.501L58.792 343.906Z" fill="#9F616A"/>
<path d="M60.8684 351.798L34.6155 351.797V351.465C34.6157 348.755 35.6923 346.156 37.6086 344.24C39.5249 342.324 42.1238 341.247 44.8338 341.247H44.8345L60.8689 341.247L60.8684 351.798Z" fill="#2F2E41"/>
<path d="M101.412 337.092L93.6366 339.506L80.6248 310.663L92.1009 307.1L101.412 337.092Z" fill="#9F616A"/>
<path d="M105.736 344.014L80.6634 351.798L80.5649 351.481C79.7615 348.893 80.019 346.091 81.2808 343.693C82.5426 341.295 84.7054 339.496 87.2935 338.692L87.2942 338.692L102.608 333.938L105.736 344.014Z" fill="#2F2E41"/>
<path d="M52.5573 199.118L40.499 212.928L49.9392 213.777L52.5573 199.118Z" fill="#E6E6E6"/>
<path d="M47.8455 216.918C47.8455 216.918 43.657 219.012 43.1334 228.437C42.6097 237.861 44.7042 262.47 44.7042 262.47C44.7042 262.47 42.6102 273.464 44.7042 283.412C46.7982 293.359 42.6102 329.483 45.2279 329.483C47.8455 329.483 61.4578 331.054 61.9814 329.483C62.505 327.912 63.0286 304.352 63.0286 304.352C63.0286 304.352 67.2171 292.311 63.0286 284.983C63.0286 284.983 77.6529 310.519 87.1119 330.008C89.1821 334.273 104.913 329.484 102.295 324.772C99.6774 320.06 93.3949 298.595 93.3949 298.595C93.3949 298.595 88.6828 282.888 80.3063 276.082L84.4948 242.574C84.4948 242.574 93.3954 220.061 88.1606 216.92C82.9259 213.779 47.8455 216.918 47.8455 216.918Z" fill="#2F2E41"/>
<path d="M63.5517 131.578C71.0696 131.578 77.164 125.484 77.164 117.966C77.164 110.448 71.0696 104.354 63.5517 104.354C56.0339 104.354 49.9395 110.448 49.9395 117.966C49.9395 125.484 56.0339 131.578 63.5517 131.578Z" fill="#A0616A"/>
<path d="M78.7348 132.626L61.8123 142.573C61.8123 142.573 55.3326 146.222 52.9122 152.521C50.3322 159.233 51.8317 168.684 52.9122 170.845C55.0062 175.033 52.0339 185.504 52.0339 185.504L49.4162 209.588C49.4162 209.588 39.9925 218.488 47.3222 219.535C54.652 220.582 67.7406 219.011 75.594 219.535C83.4474 220.059 92.3475 221.106 89.7299 215.869C87.1123 210.632 83.971 206.969 87.1123 196.5C89.5704 188.306 89.4639 157.67 89.3014 144.732C89.279 142.955 88.8025 141.213 87.9171 139.673C87.0317 138.132 85.7669 136.844 84.243 135.93L78.7348 132.626Z" fill="#E5E5E5"/>
<path opacity="0.1" d="M71.1457 149.118L72.7161 181.055L57.4948 211.879L54.9133 210.897L70.6201 182.102L71.1457 149.118Z" fill="black"/>
<path opacity="0.1" d="M88.4206 187.86V184.195L70.6218 213.515L88.4206 187.86Z" fill="black"/>
<path d="M53.8905 105.356L51.6419 104.457C51.6419 104.457 56.3481 99.2763 62.8937 99.7266L61.0523 97.6995C61.0523 97.6995 65.5529 95.8977 69.6448 100.627C71.7958 103.114 74.2841 106.036 75.8372 109.328H78.2472L77.2416 111.543L80.7618 113.758L77.1485 113.362C77.4907 115.274 77.3736 117.24 76.8066 119.098L76.9057 120.848C76.9057 120.848 72.7152 114.364 72.7152 113.465V115.717C72.7152 115.717 70.4647 113.69 70.4647 112.339L69.2371 113.916L68.6233 111.439L61.0538 113.916L62.2804 111.887L57.5742 112.563L59.4156 110.086C59.4156 110.086 54.0966 113.014 53.892 115.492C53.6874 117.97 51.0281 121.122 51.0281 121.122L49.8006 118.87C49.8006 118.87 47.9597 108.735 53.8905 105.356Z" fill="#2F2E41"/>
<path d="M62.6974 227.445C63.3299 227.084 63.8756 226.589 64.296 225.994C64.7164 225.399 65.0012 224.72 65.1305 224.003C65.2599 223.286 65.2304 222.55 65.0444 221.846C64.8583 221.142 64.5202 220.487 64.0537 219.928L73.1801 204.759L63.9887 205.139L56.7313 219.486C55.8437 220.332 55.2973 221.474 55.1955 222.696C55.0937 223.917 55.4437 225.134 56.1791 226.115C56.9145 227.096 57.9842 227.774 59.1856 228.019C60.387 228.264 61.6365 228.06 62.6974 227.445Z" fill="#9F616A"/>
<path d="M83.4474 139.433L87.3739 138.648C87.3739 138.648 99.1537 147.286 95.4888 164.563C91.8239 181.84 75.594 208.018 75.594 208.018C75.594 208.018 71.9282 212.73 70.8819 213.777C69.8357 214.824 67.7407 213.777 68.7879 215.348C69.8352 216.919 67.217 217.966 67.217 217.966C67.217 217.966 55.6988 217.966 56.746 213.777C57.7933 209.589 75.594 179.744 75.594 179.744L72.9764 151.996C72.9764 151.996 70.8814 138.386 83.4474 139.433Z" fill="#E5E5E5"/>
</svg>
