<svg width="30" height="30" viewBox="0 0 30 30" fill="none" xmlns="http://www.w3.org/2000/svg">
<g clip-path="url(#clip0_6555_375)">
<path d="M17.3127 2.62278L17.3127 2.6228L19.9437 8.87644L20.0618 9.15699L20.3652 9.18098L27.1932 9.72098C29.4208 9.89794 30.304 12.6325 28.6226 14.0566L28.6226 14.0567L23.4205 18.4638L23.1853 18.663L23.2577 18.9626L24.8476 25.5475C25.3595 27.6718 23.0173 29.3829 21.1041 28.2275L15.2585 24.6964L15.0001 24.5403L14.7416 24.6964L8.89593 28.226L8.89588 28.226C6.98242 29.3816 4.64063 27.67 5.15234 25.5476L6.74235 18.9596L6.81467 18.6599L6.57944 18.4607L1.37735 14.0551C1.37734 14.0551 1.37733 14.0551 1.37733 14.0551C-0.304368 12.6307 0.579614 9.89515 2.80654 9.7195L2.80676 9.71949L9.63491 9.17797L9.93819 9.15392L10.0562 8.87352L12.6873 2.62288L12.6873 2.62278C13.5416 0.591887 16.4584 0.591887 17.3127 2.62278Z" stroke="white"/>
<path d="M15.8935 9.15665L15.8935 9.15667L17.2782 12.448L17.3963 12.7286L17.6997 12.7525L21.2932 13.0367C21.2933 13.0367 21.2933 13.0368 21.2934 13.0368C22.2597 13.1137 22.6312 14.292 21.9112 14.9018L21.9112 14.9018L19.1733 17.2213L18.9381 17.4206L19.0104 17.7202L19.8472 21.1858C19.8473 21.1858 19.8473 21.1859 19.8473 21.186C20.0655 22.0923 19.0628 22.8411 18.2297 22.338C18.2297 22.338 18.2297 22.338 18.2297 22.338L15.1531 20.4796L14.8947 20.3235L14.6362 20.4795L11.5596 22.3372L11.5595 22.3372C10.7261 22.8406 9.72371 22.0911 9.94196 21.1858L10.7788 17.7185L10.8511 17.4189L10.6159 17.2197L7.87799 14.901C7.87798 14.901 7.87797 14.901 7.87796 14.901C7.15765 14.2908 7.53003 13.1121 8.49573 13.036L8.49594 13.036L12.0896 12.751L12.3929 12.7269L12.511 12.4465L13.8957 9.15675L13.8957 9.15665C14.264 8.28112 15.5252 8.28112 15.8935 9.15665Z" stroke="white"/>
</g>
<defs>
<clipPath id="clip0_6555_375">
<rect width="30" height="30" fill="white"/>
</clipPath>
</defs>
</svg>
