<svg width="35" height="35" viewBox="0 0 35 35" fill="none" xmlns="http://www.w3.org/2000/svg">
<path d="M25.8058 13.4245C25.2513 13.6699 24.6632 13.8311 24.0611 13.9028C24.6953 13.5235 25.1699 12.9266 25.3966 12.2233C24.8002 12.5771 24.1476 12.826 23.4671 12.9594C23.0503 12.5152 22.5096 12.2066 21.9151 12.0734C21.3207 11.9403 20.7 11.9889 20.1336 12.2129C19.5671 12.4369 19.081 12.8259 18.7384 13.3295C18.3957 13.8331 18.2123 14.4281 18.2119 15.0372C18.2114 15.2703 18.2375 15.5027 18.2896 15.7298C17.0822 15.6691 15.9011 15.3552 14.823 14.8085C13.7448 14.2618 12.7936 13.4945 12.0312 12.5564C11.6427 13.225 11.5236 14.0165 11.6982 14.7698C11.8727 15.5231 12.3278 16.1815 12.9707 16.6111C12.4885 16.5963 12.0169 16.4658 11.5956 16.2307V16.271C11.5958 16.9715 11.8381 17.6504 12.2814 18.1928C12.7247 18.7351 13.3418 19.1077 14.0283 19.2473C13.7673 19.3183 13.4981 19.354 13.2277 19.3537C13.0372 19.3537 12.8471 19.3355 12.6601 19.2993C12.8543 19.9028 13.2323 20.4306 13.7411 20.8089C14.2499 21.1871 14.8642 21.3969 15.4981 21.409C14.4214 22.2527 13.0924 22.7102 11.7245 22.708C11.4824 22.7084 11.2404 22.6944 11 22.6661C12.3896 23.559 14.0071 24.0327 15.6589 24.0304C16.7957 24.038 17.9227 23.8197 18.9745 23.3882C20.0263 22.9567 20.9818 22.3205 21.7857 21.5166C22.5896 20.7127 23.2258 19.7572 23.6573 18.7054C24.0888 17.6536 24.3071 16.5266 24.2995 15.3897C24.2995 15.2577 24.2995 15.1273 24.2909 14.9969C24.8855 14.5672 25.3988 14.035 25.8066 13.4253L25.8058 13.4245Z" fill="#FF532E" fill-opacity="0.8"/>
<path d="M15.6582 23.5304C14.749 23.5316 13.8509 23.3798 13.0002 23.0855C14.018 22.8867 14.9808 22.4496 15.8065 21.8026L16.9126 20.9358L15.5076 20.9091C14.9779 20.899 14.4646 20.7237 14.0394 20.4076C13.8258 20.2488 13.6398 20.0585 13.487 19.8445C13.7142 19.828 13.9394 19.7896 14.1595 19.7297L14.1279 18.7573C13.5545 18.6407 13.0389 18.3294 12.6686 17.8763C12.457 17.6175 12.3002 17.3214 12.2046 17.0059C12.4494 17.0677 12.7011 17.1031 12.9553 17.1109L14.6992 17.1647L13.2485 16.1954C12.7113 15.8365 12.3311 15.2863 12.1853 14.6569C12.0952 14.2684 12.0987 13.8678 12.1908 13.4867C12.889 14.2027 13.7015 14.8005 14.5968 15.2545C15.7375 15.8329 16.9871 16.165 18.2644 16.2292L18.9246 16.2624L18.7769 15.6181C18.7333 15.4279 18.7115 15.2334 18.7119 15.0383L18.7119 15.0375C18.7122 14.5286 18.8655 14.0315 19.1518 13.6108C19.438 13.19 19.8442 12.865 20.3174 12.6779C20.7907 12.4907 21.3093 12.4502 21.8059 12.5614C22.3025 12.6726 22.7542 12.9304 23.1025 13.3015L23.2918 13.5032L23.5633 13.45C23.7066 13.4219 23.8489 13.3891 23.9897 13.3516C23.93 13.3948 23.8682 13.4356 23.8044 13.4737L24.1202 14.3993C24.1715 14.3932 24.2227 14.3865 24.2738 14.3792C24.1842 14.4527 24.0923 14.5235 23.9981 14.5916L23.7739 14.7536L23.792 15.0295C23.7993 15.1409 23.7995 15.255 23.7995 15.3897L23.7995 15.3931C23.8067 16.4637 23.6011 17.5251 23.1947 18.5156C22.7883 19.5061 22.1892 20.406 21.4322 21.1631C20.6751 21.9201 19.7752 22.5192 18.7847 22.9256C17.7942 23.332 16.7328 23.5376 15.6622 23.5304L15.6582 23.5304ZM13.2275 19.5167L13.227 19.8537C13.2271 19.8537 13.2272 19.8537 13.2274 19.8537C13.2275 19.8537 13.2276 19.8537 13.2278 19.8537L13.2277 19.5168C13.2535 19.528 13.2793 19.5388 13.3054 19.5494C13.2776 19.4966 13.2517 19.4428 13.2277 19.388L13.2275 19.5167Z" stroke="#FF532E" stroke-opacity="0.4"/>
<circle cx="17.5" cy="17.5" r="17.25" stroke="#FF532E" stroke-opacity="0.4" stroke-width="0.5"/>
</svg>
